<?xml version="1.0" encoding="utf-8"?>
<!-- Generator: Adobe Illustrator 27.1.1, SVG Export Plug-In . SVG Version: 6.00 Build 0)  -->
<svg version="1.1" id="Capa_1" xmlns="http://www.w3.org/2000/svg" xmlns:xlink="http://www.w3.org/1999/xlink" x="0px" y="0px"
	 viewBox="0 0 928.2 610.3" style="enable-background:new 0 0 928.2 610.3;" xml:space="preserve">
<style type="text/css">
	.st0{fill:none;stroke:#000000;stroke-miterlimit:10;}
	.st1{opacity:0.77;fill:#A2D8F6;}
	.st2{fill:none;stroke:#20A5DF;stroke-width:2;stroke-miterlimit:10;}
	.st3{fill:#4DADE2;stroke:#FFFFFF;stroke-width:2;stroke-miterlimit:10;}
</style>
<line class="st0" x1="471.3" y1="109.4" x2="471.3" y2="535.5"/>
<line class="st0" x1="320.6" y1="171.8" x2="621.9" y2="473.1"/>
<line class="st0" x1="258.2" y1="322.4" x2="684.3" y2="322.4"/>
<line class="st0" x1="320.6" y1="473.1" x2="621.9" y2="171.8"/>
<polygon class="st0" points="561.3,232.4 471.3,195.1 381.2,232.4 343.9,322.4 381.2,412.5 471.3,449.8 561.3,412.5 598.7,322.4 "/>
<polygon class="st0" points="531.3,262.4 471.3,237.5 411.2,262.4 386.3,322.4 411.2,382.5 471.3,407.4 531.3,382.5 556.2,322.4 "/>
<polygon class="st0" points="501.5,292.2 471.3,279.6 441,292.2 428.5,322.4 441,352.7 471.3,365.3 501.5,352.7 514.1,322.4 "/>
<polygon class="st0" points="590.9,202.8 471.3,153.3 351.7,202.8 302.1,322.4 351.7,442.1 471.3,491.6 590.9,442.1 640.4,322.4 "/>
<polygon class="st0" points="621.6,172.1 471.3,109.8 320.9,172.1 258.6,322.4 320.9,472.8 471.3,535.1 621.6,472.8 683.9,322.4 "/>
<g>
	<path d="M156.2,160c-0.6,0-1-0.2-1.4-0.5c-0.4-0.3-0.6-0.8-0.6-1.5v-12.7c0-0.6,0.2-1.1,0.5-1.4c0.4-0.3,0.8-0.4,1.2-0.4h3.7
		c1.6,0,3,0.3,4.3,0.9c1.3,0.6,2.3,1.5,3,2.7c0.7,1.2,1.1,2.7,1.1,4.5c0,1.4-0.3,2.7-0.9,4c-0.6,1.3-1.5,2.3-2.6,3.1
		c-1.1,0.8-2.4,1.2-3.9,1.2H156.2z M157.7,158.3h2.2c1.3,0,2.5-0.3,3.4-0.9c0.9-0.6,1.7-1.4,2.2-2.4c0.5-1,0.8-2.1,0.7-3.3
		c0-2-0.6-3.5-1.8-4.7c-1.1-1.1-2.7-1.7-4.6-1.7h-2.2c-1,0-1.5,0.5-1.5,1.5v10C156.2,157.8,156.7,158.3,157.7,158.3z"/>
	<path d="M172.1,145.2c-0.4,0-0.8-0.1-1.1-0.4c-0.3-0.3-0.4-0.6-0.4-1c0-0.4,0.1-0.8,0.4-1.1c0.3-0.3,0.6-0.4,1.1-0.4
		c0.4,0,0.8,0.1,1.1,0.4c0.3,0.3,0.4,0.6,0.4,1.1c0,0.4-0.1,0.8-0.4,1C172.9,145.1,172.5,145.2,172.1,145.2z M172.2,160.4
		c-0.3,0-0.5-0.1-0.7-0.3c-0.2-0.2-0.3-0.4-0.3-0.7v-10.6c0-0.3,0.1-0.5,0.3-0.7c0.2-0.2,0.4-0.2,0.7-0.2c0.2,0,0.4,0.1,0.6,0.2
		c0.2,0.2,0.3,0.4,0.3,0.7v10.6c0,0.3-0.1,0.5-0.2,0.7C172.7,160.3,172.5,160.4,172.2,160.4z"/>
	<path d="M180.9,160.4c-1.9,0-3.4-0.5-4.6-1.6c-0.2-0.2-0.3-0.4-0.3-0.7c0-0.3,0.1-0.5,0.3-0.7c0.2-0.2,0.4-0.2,0.5-0.2
		c0.2,0,0.5,0.1,0.8,0.4c0.4,0.4,0.9,0.6,1.4,0.8c0.5,0.2,1.2,0.3,1.8,0.3c1,0,1.7-0.2,2.2-0.5c0.5-0.4,0.7-0.8,0.7-1.5
		c0-0.6-0.3-1.1-0.8-1.4c-0.5-0.3-1.3-0.5-2.2-0.6c-0.5-0.1-1.2-0.2-1.9-0.3c-0.7-0.1-1.4-0.4-1.9-0.9c-0.6-0.4-0.8-1.1-0.8-2
		c0-1.1,0.4-2,1.2-2.7s2-1,3.5-1c0.9,0,1.7,0.1,2.4,0.3c0.7,0.2,1.3,0.5,1.6,0.8c0.2,0.2,0.3,0.4,0.3,0.7c0,0.2-0.1,0.4-0.2,0.6
		c-0.2,0.2-0.4,0.3-0.6,0.3c-0.1,0-0.2,0-0.3-0.1c-0.1-0.1-0.2-0.1-0.3-0.2c-0.5-0.3-0.9-0.5-1.4-0.6c-0.4-0.1-0.9-0.2-1.4-0.2
		c-0.9,0-1.6,0.2-2.1,0.5c-0.5,0.3-0.8,0.8-0.8,1.4c0,0.4,0.2,0.8,0.6,1c0.4,0.2,1.1,0.4,2.2,0.5c0.4,0.1,0.9,0.1,1.4,0.2
		c0.6,0.1,1.1,0.3,1.6,0.5c0.5,0.2,1,0.6,1.3,1s0.5,1.1,0.5,1.8c0,1.1-0.4,2.1-1.3,2.7C183.6,160.1,182.4,160.4,180.9,160.4z"/>
	<path d="M195,160.4c-0.9,0-1.7-0.2-2.4-0.5c-0.7-0.3-1.4-0.8-1.8-1.4v6.4c0,0.3-0.1,0.5-0.2,0.7s-0.4,0.3-0.7,0.3
		c-0.3,0-0.5-0.1-0.7-0.3c-0.2-0.2-0.3-0.4-0.3-0.7v-15.8c0-0.3,0.1-0.5,0.3-0.7c0.2-0.2,0.4-0.2,0.7-0.2c0.2,0,0.4,0.1,0.6,0.2
		c0.2,0.2,0.3,0.4,0.3,0.7v0.7c1.1-1.2,2.5-1.9,4.3-1.9c1.7,0,3.1,0.6,4.2,1.7c1.1,1.1,1.7,2.6,1.7,4.4c0,1.9-0.6,3.4-1.7,4.5
		C198.2,159.8,196.8,160.4,195,160.4z M195,158.7c1.2,0,2.2-0.4,2.9-1.3c0.7-0.9,1.1-2,1.1-3.3c0-1.2-0.4-2.3-1.1-3.2
		c-0.7-0.9-1.7-1.3-2.9-1.3c-1.3,0-2.3,0.4-3.1,1.1c-0.8,0.7-1.2,1.9-1.2,3.3c0,1.5,0.4,2.7,1.2,3.4
		C192.7,158.3,193.8,158.7,195,158.7z"/>
	<path d="M210,160.4c-1.2,0-2.2-0.3-3.1-0.8c-0.9-0.6-1.6-1.3-2.2-2.3s-0.8-2-0.8-3.2c0-1.2,0.3-2.2,0.8-3.2s1.3-1.6,2.2-2.2
		c0.9-0.5,2-0.8,3.1-0.8c1.2,0,2.2,0.3,3.1,0.8c0.9,0.5,1.7,1.3,2.2,2.2s0.8,2,0.8,3.2c0,1.2-0.3,2.3-0.8,3.2s-1.3,1.7-2.2,2.3
		C212.2,160.1,211.1,160.4,210,160.4z M210,158.7c1.3,0,2.3-0.4,3.1-1.3c0.8-0.9,1.2-2,1.2-3.3c0-1.2-0.4-2.3-1.2-3.2
		c-0.8-0.9-1.8-1.3-3.1-1.3c-1.3,0-2.3,0.4-3.1,1.3c-0.8,0.9-1.1,1.9-1.1,3.2c0,1.3,0.4,2.4,1.1,3.3
		C207.7,158.3,208.7,158.7,210,158.7z"/>
	<path d="M229.5,160.4c-0.3,0-0.5-0.1-0.7-0.3s-0.3-0.4-0.3-0.7v-5.6c0-1.4-0.3-2.4-0.9-3.1c-0.6-0.7-1.4-1-2.5-1
		c-1,0-1.8,0.2-2.4,0.7c-0.6,0.5-1.1,1-1.4,1.7c-0.3,0.7-0.4,1.4-0.4,2v5.3c0,0.3-0.1,0.5-0.2,0.7s-0.4,0.3-0.7,0.3
		c-0.3,0-0.5-0.1-0.7-0.3c-0.2-0.2-0.3-0.4-0.3-0.7v-10.4c0-0.3,0.1-0.5,0.3-0.7c0.2-0.2,0.4-0.2,0.7-0.2c0.2,0,0.4,0.1,0.6,0.2
		c0.2,0.2,0.3,0.4,0.3,0.7v0.9c0.6-0.6,1.2-1.1,2-1.5c0.8-0.4,1.6-0.5,2.4-0.5c1.4,0,2.6,0.5,3.5,1.4c0.9,0.9,1.4,2.4,1.4,4.3v5.8
		c0,0.3-0.1,0.5-0.2,0.7C230,160.3,229.8,160.4,229.5,160.4z"/>
	<path d="M235,145.2c-0.4,0-0.8-0.1-1.1-0.4c-0.3-0.3-0.4-0.6-0.4-1c0-0.4,0.1-0.8,0.4-1.1c0.3-0.3,0.6-0.4,1.1-0.4
		c0.4,0,0.8,0.1,1.1,0.4c0.3,0.3,0.4,0.6,0.4,1.1c0,0.4-0.1,0.8-0.4,1C235.8,145.1,235.5,145.2,235,145.2z M235.1,160.4
		c-0.3,0-0.5-0.1-0.7-0.3c-0.2-0.2-0.3-0.4-0.3-0.7v-10.6c0-0.3,0.1-0.5,0.3-0.7c0.2-0.2,0.4-0.2,0.7-0.2c0.2,0,0.4,0.1,0.6,0.2
		c0.2,0.2,0.3,0.4,0.3,0.7v10.6c0,0.3-0.1,0.5-0.2,0.7C235.6,160.3,235.4,160.4,235.1,160.4z"/>
	<path d="M245.9,160.4c-0.9,0-1.7-0.2-2.4-0.5c-0.7-0.3-1.4-0.8-1.8-1.4v0.8c0,0.3-0.1,0.5-0.2,0.7c-0.2,0.2-0.4,0.3-0.7,0.3
		c-0.3,0-0.5-0.1-0.7-0.3c-0.2-0.2-0.3-0.4-0.3-0.7V143c0-0.3,0.1-0.5,0.3-0.7c0.2-0.2,0.4-0.2,0.7-0.2c0.2,0,0.4,0.1,0.6,0.2
		c0.2,0.2,0.3,0.4,0.3,0.7v6.8c1.1-1.2,2.5-1.9,4.3-1.9c1.7,0,3.1,0.6,4.2,1.7c1.1,1.1,1.7,2.6,1.7,4.4c0,1.9-0.6,3.4-1.7,4.5
		C249.1,159.8,247.7,160.4,245.9,160.4z M245.9,158.7c1.2,0,2.2-0.4,2.9-1.3c0.7-0.9,1.1-2,1.1-3.3c0-1.2-0.4-2.3-1.1-3.2
		c-0.7-0.9-1.7-1.3-2.9-1.3c-1.3,0-2.3,0.4-3.1,1.1c-0.8,0.7-1.2,1.9-1.2,3.3c0,1.5,0.4,2.7,1.2,3.4
		C243.6,158.3,244.7,158.7,245.9,158.7z"/>
	<path d="M256,145.2c-0.4,0-0.8-0.1-1.1-0.4c-0.3-0.3-0.4-0.6-0.4-1c0-0.4,0.1-0.8,0.4-1.1c0.3-0.3,0.6-0.4,1.1-0.4
		c0.4,0,0.8,0.1,1.1,0.4c0.3,0.3,0.4,0.6,0.4,1.1c0,0.4-0.1,0.8-0.4,1C256.8,145.1,256.4,145.2,256,145.2z M256.1,160.4
		c-0.3,0-0.5-0.1-0.7-0.3c-0.2-0.2-0.3-0.4-0.3-0.7v-10.6c0-0.3,0.1-0.5,0.3-0.7c0.2-0.2,0.4-0.2,0.7-0.2c0.2,0,0.4,0.1,0.6,0.2
		c0.2,0.2,0.3,0.4,0.3,0.7v10.6c0,0.3-0.1,0.5-0.2,0.7C256.6,160.3,256.4,160.4,256.1,160.4z"/>
	<path d="M261.7,160.4c-0.3,0-0.5-0.1-0.7-0.3c-0.2-0.2-0.3-0.4-0.3-0.7V143c0-0.3,0.1-0.5,0.3-0.7c0.2-0.2,0.4-0.2,0.7-0.2
		c0.2,0,0.4,0.1,0.6,0.2c0.2,0.2,0.3,0.4,0.3,0.7v16.4c0,0.3-0.1,0.5-0.2,0.7S262,160.4,261.7,160.4z"/>
	<path d="M267.4,145.2c-0.4,0-0.8-0.1-1.1-0.4c-0.3-0.3-0.4-0.6-0.4-1c0-0.4,0.1-0.8,0.4-1.1c0.3-0.3,0.6-0.4,1.1-0.4
		c0.4,0,0.8,0.1,1.1,0.4c0.3,0.3,0.4,0.6,0.4,1.1c0,0.4-0.1,0.8-0.4,1C268.2,145.1,267.9,145.2,267.4,145.2z M267.5,160.4
		c-0.3,0-0.5-0.1-0.7-0.3c-0.2-0.2-0.3-0.4-0.3-0.7v-10.6c0-0.3,0.1-0.5,0.3-0.7c0.2-0.2,0.4-0.2,0.7-0.2c0.2,0,0.4,0.1,0.6,0.2
		c0.2,0.2,0.3,0.4,0.3,0.7v10.6c0,0.3-0.1,0.5-0.2,0.7C268,160.3,267.8,160.4,267.5,160.4z"/>
	<path d="M277.5,160.4c-1.7,0-3.1-0.6-4.2-1.8c-1.1-1.2-1.7-2.7-1.7-4.5c0-1.8,0.6-3.3,1.7-4.4c1.1-1.1,2.5-1.7,4.2-1.7
		c1.8,0,3.2,0.6,4.3,1.9V143c0-0.3,0.1-0.5,0.3-0.7c0.2-0.2,0.4-0.2,0.6-0.2c0.2,0,0.5,0.1,0.7,0.2c0.2,0.2,0.3,0.4,0.3,0.7v16.2
		c0,0.3-0.1,0.5-0.3,0.7c-0.2,0.2-0.4,0.3-0.7,0.3s-0.5-0.1-0.7-0.3c-0.2-0.2-0.2-0.4-0.2-0.7v-0.8c-0.5,0.6-1.1,1.1-1.8,1.4
		C279.2,160.2,278.4,160.4,277.5,160.4z M277.5,158.7c1.3,0,2.3-0.4,3.1-1.2c0.8-0.8,1.2-1.9,1.2-3.4c0-1.5-0.4-2.6-1.2-3.3
		c-0.8-0.7-1.8-1.1-3.1-1.1c-1.2,0-2.2,0.4-2.9,1.3c-0.7,0.9-1.1,1.9-1.1,3.2c0,1.3,0.4,2.4,1.1,3.3
		C275.3,158.3,276.3,158.7,277.5,158.7z"/>
	<path d="M292.4,160.4c-1.7,0-3.1-0.6-4.2-1.8c-1.1-1.2-1.7-2.7-1.7-4.5c0-1.8,0.6-3.3,1.7-4.4c1.1-1.1,2.5-1.7,4.2-1.7
		c1.8,0,3.2,0.6,4.3,1.9v-0.7c0-0.3,0.1-0.5,0.3-0.7c0.2-0.2,0.4-0.2,0.6-0.2c0.2,0,0.5,0.1,0.7,0.2c0.2,0.2,0.3,0.4,0.3,0.7v10.4
		c0,0.3-0.1,0.5-0.3,0.7s-0.4,0.3-0.7,0.3s-0.5-0.1-0.7-0.3s-0.2-0.4-0.2-0.7v-1c-0.5,0.6-1.1,1.1-1.8,1.4
		C294.1,160.2,293.3,160.4,292.4,160.4z M292.4,158.7c1.3,0,2.3-0.4,3.1-1.2c0.8-0.8,1.2-1.9,1.2-3.4c0-1.5-0.4-2.6-1.2-3.3
		c-0.8-0.7-1.8-1.1-3.1-1.1c-1.2,0-2.2,0.4-2.9,1.3c-0.7,0.9-1.1,1.9-1.1,3.2c0,1.3,0.4,2.4,1.1,3.3
		C290.3,158.3,291.2,158.7,292.4,158.7z"/>
	<path d="M307.4,160.4c-1.7,0-3.1-0.6-4.2-1.8c-1.1-1.2-1.7-2.7-1.7-4.5c0-1.8,0.6-3.3,1.7-4.4c1.1-1.1,2.5-1.7,4.2-1.7
		c1.8,0,3.2,0.6,4.3,1.9V143c0-0.3,0.1-0.5,0.3-0.7c0.2-0.2,0.4-0.2,0.6-0.2c0.2,0,0.5,0.1,0.7,0.2c0.2,0.2,0.3,0.4,0.3,0.7v16.2
		c0,0.3-0.1,0.5-0.3,0.7c-0.2,0.2-0.4,0.3-0.7,0.3s-0.5-0.1-0.7-0.3c-0.2-0.2-0.2-0.4-0.2-0.7v-0.8c-0.5,0.6-1.1,1.1-1.8,1.4
		C309.1,160.2,308.3,160.4,307.4,160.4z M307.4,158.7c1.3,0,2.3-0.4,3.1-1.2c0.8-0.8,1.2-1.9,1.2-3.4c0-1.5-0.4-2.6-1.2-3.3
		c-0.8-0.7-1.8-1.1-3.1-1.1c-1.2,0-2.2,0.4-2.9,1.3c-0.7,0.9-1.1,1.9-1.1,3.2c0,1.3,0.4,2.4,1.1,3.3
		C305.2,158.3,306.2,158.7,307.4,158.7z"/>
</g>
<g>
	<path d="M642.7,159c-0.6,0.4-1.4,0.7-2.4,1c-1,0.2-1.9,0.4-2.8,0.4c-1.5,0-2.9-0.4-4.2-1.1c-1.2-0.8-2.2-1.8-3-3.1
		c-0.7-1.3-1.1-2.8-1.1-4.5c0-1.7,0.4-3.1,1.1-4.4c0.7-1.3,1.7-2.3,3-3c1.2-0.7,2.7-1.1,4.2-1.1c1.7,0,3.1,0.3,4.2,0.9
		c0.4,0.2,0.6,0.5,0.6,0.9c0,0.1,0,0.1,0,0.2c0,0.1,0,0.2-0.1,0.2c-0.1,0.1-0.2,0.3-0.4,0.4c-0.2,0.1-0.4,0.1-0.6,0.1
		c-1.1-0.6-2.3-0.9-3.7-0.9c-1.2,0-2.3,0.3-3.3,0.9c-1,0.6-1.7,1.4-2.2,2.4c-0.5,1-0.8,2.2-0.8,3.5c0,2,0.6,3.7,1.7,5
		c1.2,1.3,2.7,1.9,4.7,2c0.8,0,1.6-0.1,2.4-0.4c0.8-0.3,1.3-0.6,1.7-0.9c0.1-0.1,0.2-0.1,0.2-0.1c0.1,0,0.2,0,0.2,0
		c0.2,0,0.4,0.1,0.6,0.3c0.2,0.2,0.3,0.4,0.3,0.6C643.2,158.3,643,158.7,642.7,159z"/>
	<path d="M651.3,160.4c-1.2,0-2.2-0.3-3.1-0.8s-1.6-1.3-2.2-2.3s-0.8-2-0.8-3.2c0-1.2,0.3-2.2,0.8-3.2s1.3-1.6,2.2-2.2
		s2-0.8,3.1-0.8c1.2,0,2.2,0.3,3.1,0.8s1.7,1.3,2.2,2.2s0.8,2,0.8,3.2c0,1.2-0.3,2.3-0.8,3.2s-1.3,1.7-2.2,2.3
		S652.5,160.4,651.3,160.4z M651.3,158.7c1.3,0,2.3-0.4,3.1-1.3c0.8-0.9,1.2-2,1.2-3.3c0-1.2-0.4-2.3-1.2-3.2
		c-0.8-0.9-1.8-1.3-3.1-1.3c-1.3,0-2.3,0.4-3.1,1.3c-0.8,0.9-1.1,1.9-1.1,3.2c0,1.3,0.4,2.4,1.1,3.3
		C649,158.3,650.1,158.7,651.3,158.7z"/>
	<path d="M661.6,160.4c-0.3,0-0.5-0.1-0.7-0.3c-0.2-0.2-0.3-0.4-0.3-0.7v-10.4c0-0.3,0.1-0.5,0.3-0.7c0.2-0.2,0.4-0.2,0.7-0.2
		c0.2,0,0.4,0.1,0.6,0.2c0.2,0.2,0.3,0.4,0.3,0.7v0.9c0.5-0.7,1.1-1.2,1.8-1.5c0.7-0.3,1.5-0.5,2.3-0.5c0.9,0,1.7,0.2,2.5,0.7
		c0.7,0.4,1.3,1.1,1.7,2c0.5-1.1,1.2-1.8,2.1-2.1c0.9-0.4,1.7-0.6,2.5-0.6c1.3,0,2.4,0.5,3.3,1.4c0.9,0.9,1.4,2.4,1.4,4.3v5.8
		c0,0.3-0.1,0.5-0.2,0.7c-0.2,0.2-0.4,0.3-0.7,0.3c-0.3,0-0.5-0.1-0.7-0.3c-0.2-0.2-0.3-0.4-0.3-0.7v-5.7c0-1.4-0.3-2.4-0.8-3.1
		s-1.3-1-2.2-1c-0.9,0-1.7,0.2-2.2,0.7c-0.6,0.5-1,1-1.2,1.7c-0.2,0.7-0.4,1.3-0.4,2v5.3c0,0.3-0.1,0.5-0.2,0.7s-0.4,0.3-0.7,0.3
		c-0.3,0-0.5-0.1-0.7-0.3c-0.2-0.2-0.3-0.4-0.3-0.7v-5.6c0-1.4-0.3-2.4-0.8-3.1c-0.5-0.7-1.3-1-2.2-1s-1.7,0.2-2.2,0.7
		c-0.6,0.5-1,1-1.2,1.7c-0.2,0.7-0.4,1.4-0.4,2v5.3c0,0.3-0.1,0.5-0.2,0.7S661.8,160.4,661.6,160.4z"/>
	<path d="M689.6,160.4c-0.9,0-1.7-0.2-2.4-0.5c-0.7-0.3-1.4-0.8-1.8-1.4v6.4c0,0.3-0.1,0.5-0.2,0.7s-0.4,0.3-0.7,0.3
		c-0.3,0-0.5-0.1-0.7-0.3c-0.2-0.2-0.3-0.4-0.3-0.7v-15.8c0-0.3,0.1-0.5,0.3-0.7c0.2-0.2,0.4-0.2,0.7-0.2c0.2,0,0.4,0.1,0.6,0.2
		c0.2,0.2,0.3,0.4,0.3,0.7v0.7c1.1-1.2,2.5-1.9,4.3-1.9c1.7,0,3.1,0.6,4.2,1.7c1.1,1.1,1.7,2.6,1.7,4.4c0,1.9-0.6,3.4-1.7,4.5
		C692.7,159.8,691.3,160.4,689.6,160.4z M689.6,158.7c1.2,0,2.2-0.4,2.9-1.3c0.7-0.9,1.1-2,1.1-3.3c0-1.2-0.4-2.3-1.1-3.2
		c-0.7-0.9-1.7-1.3-2.9-1.3c-1.3,0-2.3,0.4-3.1,1.1c-0.8,0.7-1.2,1.9-1.2,3.3c0,1.5,0.4,2.7,1.2,3.4
		C687.3,158.3,688.3,158.7,689.6,158.7z"/>
	<path d="M699.6,160.4c-0.3,0-0.5-0.1-0.7-0.3c-0.2-0.2-0.3-0.4-0.3-0.7V143c0-0.3,0.1-0.5,0.3-0.7s0.4-0.2,0.7-0.2
		c0.2,0,0.4,0.1,0.6,0.2c0.2,0.2,0.3,0.4,0.3,0.7v16.4c0,0.3-0.1,0.5-0.2,0.7S699.9,160.4,699.6,160.4z"/>
	<path d="M710,160.4c-1.9,0-3.5-0.6-4.7-1.7c-1.2-1.1-1.7-2.7-1.7-4.8c0-1.1,0.2-2.1,0.7-3c0.5-0.9,1.2-1.6,2.1-2.2
		c0.9-0.5,2-0.8,3.2-0.8c1.3,0,2.3,0.3,3.2,0.8c0.8,0.5,1.4,1.2,1.8,2c0.4,0.8,0.6,1.6,0.6,2.3c0,0.5-0.1,0.9-0.3,1.2
		c-0.2,0.3-0.5,0.5-0.9,0.5h-8c-0.2,0-0.3,0-0.4,0c-0.1,0-0.1,0.1-0.1,0.3c0,0.5,0.2,1,0.5,1.5c0.3,0.6,0.7,1,1.3,1.4
		c0.6,0.4,1.2,0.6,2,0.7c0.8,0.1,1.6,0,2.4-0.2c0.8-0.2,1.5-0.6,2.1-1c0.1-0.1,0.3-0.2,0.5-0.2c0.2,0,0.4,0.1,0.6,0.2
		c0.2,0.2,0.3,0.4,0.3,0.6c0,0.2-0.1,0.5-0.4,0.7c-0.7,0.5-1.4,0.9-2.2,1.2C711.6,160.3,710.8,160.4,710,160.4z M712.6,153.3
		c0.2,0,0.4-0.1,0.5-0.3c0.1-0.2,0.1-0.4,0.1-0.7c-0.1-0.7-0.5-1.4-1.1-1.9c-0.7-0.6-1.5-0.9-2.5-0.9c-0.7,0-1.4,0.2-2,0.5
		c-0.6,0.3-1.1,0.8-1.4,1.3c-0.4,0.5-0.5,1.1-0.5,1.7c0,0.1,0.1,0.2,0.4,0.2L712.6,153.3z"/>
	<path d="M716.9,165.8c-0.2,0-0.4,0-0.7-0.1s-0.5-0.1-0.7-0.2c-0.2-0.1-0.4-0.3-0.5-0.5s-0.1-0.5,0-0.6c0.1-0.2,0.2-0.4,0.4-0.5
		c0.2-0.1,0.4-0.2,0.7-0.1c0.2,0.1,0.3,0.1,0.5,0.1c0.2,0,0.3,0,0.5,0c0.6,0,1-0.2,1.3-0.6c0.3-0.4,0.5-1,0.5-1.8v-12.8
		c0-0.3,0.1-0.5,0.3-0.7c0.2-0.2,0.4-0.2,0.7-0.2c0.2,0,0.4,0.1,0.6,0.2c0.2,0.2,0.3,0.4,0.3,0.7v12.8c0,1.3-0.4,2.3-1.1,3
		C719,165.4,718.1,165.8,716.9,165.8z M719.8,145.2c-0.4,0-0.8-0.1-1.1-0.4c-0.3-0.3-0.4-0.6-0.4-1c0-0.4,0.1-0.8,0.4-1.1
		c0.3-0.3,0.6-0.4,1.1-0.4c0.4,0,0.8,0.1,1.1,0.4c0.3,0.3,0.4,0.6,0.4,1.1c0,0.4-0.1,0.8-0.4,1C720.6,145.1,720.2,145.2,719.8,145.2
		z"/>
	<path d="M725.6,145.2c-0.4,0-0.8-0.1-1.1-0.4c-0.3-0.3-0.4-0.6-0.4-1c0-0.4,0.1-0.8,0.4-1.1c0.3-0.3,0.6-0.4,1.1-0.4
		c0.4,0,0.8,0.1,1.1,0.4c0.3,0.3,0.4,0.6,0.4,1.1c0,0.4-0.1,0.8-0.4,1C726.4,145.1,726.1,145.2,725.6,145.2z M725.7,160.4
		c-0.3,0-0.5-0.1-0.7-0.3s-0.3-0.4-0.3-0.7v-10.6c0-0.3,0.1-0.5,0.3-0.7c0.2-0.2,0.4-0.2,0.7-0.2c0.2,0,0.4,0.1,0.6,0.2
		c0.2,0.2,0.3,0.4,0.3,0.7v10.6c0,0.3-0.1,0.5-0.2,0.7S726,160.4,725.7,160.4z"/>
	<path d="M735.7,160.4c-1.7,0-3.1-0.6-4.2-1.8c-1.1-1.2-1.7-2.7-1.7-4.5c0-1.8,0.6-3.3,1.7-4.4c1.1-1.1,2.5-1.7,4.2-1.7
		c1.8,0,3.2,0.6,4.3,1.9V143c0-0.3,0.1-0.5,0.3-0.7c0.2-0.2,0.4-0.2,0.6-0.2c0.2,0,0.5,0.1,0.7,0.2c0.2,0.2,0.3,0.4,0.3,0.7v16.2
		c0,0.3-0.1,0.5-0.3,0.7c-0.2,0.2-0.4,0.3-0.7,0.3c-0.3,0-0.5-0.1-0.7-0.3c-0.2-0.2-0.2-0.4-0.2-0.7v-0.8c-0.5,0.6-1.1,1.1-1.8,1.4
		C737.4,160.2,736.6,160.4,735.7,160.4z M735.7,158.7c1.3,0,2.3-0.4,3.1-1.2c0.8-0.8,1.2-1.9,1.2-3.4c0-1.5-0.4-2.6-1.2-3.3
		c-0.8-0.7-1.8-1.1-3.1-1.1c-1.2,0-2.2,0.4-2.9,1.3c-0.7,0.9-1.1,1.9-1.1,3.2c0,1.3,0.4,2.4,1.1,3.3
		C733.5,158.3,734.5,158.7,735.7,158.7z"/>
	<path d="M750.6,160.4c-1.7,0-3.1-0.6-4.2-1.8c-1.1-1.2-1.7-2.7-1.7-4.5c0-1.8,0.6-3.3,1.7-4.4c1.1-1.1,2.5-1.7,4.2-1.7
		c1.8,0,3.2,0.6,4.3,1.9v-0.7c0-0.3,0.1-0.5,0.3-0.7s0.4-0.2,0.6-0.2c0.2,0,0.5,0.1,0.7,0.2c0.2,0.2,0.3,0.4,0.3,0.7v10.4
		c0,0.3-0.1,0.5-0.3,0.7c-0.2,0.2-0.4,0.3-0.7,0.3c-0.3,0-0.5-0.1-0.7-0.3s-0.2-0.4-0.2-0.7v-1c-0.5,0.6-1.1,1.1-1.8,1.4
		C752.3,160.2,751.5,160.4,750.6,160.4z M750.6,158.7c1.3,0,2.3-0.4,3.1-1.2c0.8-0.8,1.2-1.9,1.2-3.4c0-1.5-0.4-2.6-1.2-3.3
		c-0.8-0.7-1.8-1.1-3.1-1.1c-1.2,0-2.2,0.4-2.9,1.3c-0.7,0.9-1.1,1.9-1.1,3.2c0,1.3,0.4,2.4,1.1,3.3
		C748.5,158.3,749.4,158.7,750.6,158.7z"/>
	<path d="M765.6,160.4c-1.7,0-3.1-0.6-4.2-1.8c-1.1-1.2-1.7-2.7-1.7-4.5c0-1.8,0.6-3.3,1.7-4.4c1.1-1.1,2.5-1.7,4.2-1.7
		c1.8,0,3.2,0.6,4.3,1.9V143c0-0.3,0.1-0.5,0.3-0.7s0.4-0.2,0.6-0.2c0.2,0,0.5,0.1,0.7,0.2c0.2,0.2,0.3,0.4,0.3,0.7v16.2
		c0,0.3-0.1,0.5-0.3,0.7c-0.2,0.2-0.4,0.3-0.7,0.3c-0.3,0-0.5-0.1-0.7-0.3c-0.2-0.2-0.2-0.4-0.2-0.7v-0.8c-0.5,0.6-1.1,1.1-1.8,1.4
		C767.3,160.2,766.5,160.4,765.6,160.4z M765.6,158.7c1.3,0,2.3-0.4,3.1-1.2c0.8-0.8,1.2-1.9,1.2-3.4c0-1.5-0.4-2.6-1.2-3.3
		c-0.8-0.7-1.8-1.1-3.1-1.1c-1.2,0-2.2,0.4-2.9,1.3c-0.7,0.9-1.1,1.9-1.1,3.2c0,1.3,0.4,2.4,1.1,3.3
		C763.4,158.3,764.4,158.7,765.6,158.7z"/>
</g>
<g>
	<path d="M134.9,502.1c-0.6,0.4-1.4,0.7-2.4,1c-1,0.2-1.9,0.4-2.8,0.4c-1.5,0-2.9-0.4-4.2-1.1c-1.2-0.8-2.2-1.8-3-3.1
		c-0.7-1.3-1.1-2.8-1.1-4.5c0-1.7,0.4-3.1,1.1-4.4c0.7-1.3,1.7-2.3,3-3c1.2-0.7,2.7-1.1,4.2-1.1c1.7,0,3.1,0.3,4.2,0.9
		c0.4,0.2,0.6,0.5,0.6,0.9c0,0.1,0,0.1,0,0.2c0,0.1,0,0.2-0.1,0.2c-0.1,0.1-0.2,0.3-0.4,0.4c-0.2,0.1-0.4,0.1-0.6,0.1
		c-1.1-0.6-2.3-0.9-3.7-0.9c-1.2,0-2.3,0.3-3.3,0.9c-1,0.6-1.7,1.4-2.2,2.4c-0.5,1-0.8,2.2-0.8,3.5c0,2,0.6,3.7,1.7,5
		c1.2,1.3,2.7,1.9,4.7,2c0.8,0,1.6-0.1,2.4-0.4c0.8-0.3,1.3-0.6,1.7-0.9c0.1-0.1,0.2-0.1,0.2-0.1c0.1,0,0.2,0,0.2,0
		c0.2,0,0.4,0.1,0.6,0.3c0.2,0.2,0.3,0.4,0.3,0.6C135.3,501.4,135.2,501.7,134.9,502.1z"/>
	<path d="M143.5,503.4c-1.2,0-2.2-0.3-3.1-0.8c-0.9-0.6-1.6-1.3-2.2-2.3c-0.5-1-0.8-2-0.8-3.2c0-1.2,0.3-2.2,0.8-3.2
		s1.3-1.6,2.2-2.2c0.9-0.5,2-0.8,3.1-0.8c1.2,0,2.2,0.3,3.1,0.8c0.9,0.5,1.7,1.3,2.2,2.2s0.8,2,0.8,3.2c0,1.2-0.3,2.3-0.8,3.2
		c-0.5,1-1.3,1.7-2.2,2.3C145.7,503.2,144.7,503.4,143.5,503.4z M143.5,501.7c1.3,0,2.3-0.4,3.1-1.3c0.8-0.9,1.2-2,1.2-3.3
		c0-1.2-0.4-2.3-1.2-3.2c-0.8-0.9-1.8-1.3-3.1-1.3c-1.3,0-2.3,0.4-3.1,1.3c-0.8,0.9-1.1,1.9-1.1,3.2c0,1.3,0.4,2.4,1.1,3.3
		C141.2,501.3,142.2,501.7,143.5,501.7z"/>
	<path d="M163.1,503.4c-0.3,0-0.5-0.1-0.7-0.3s-0.3-0.4-0.3-0.7v-5.7c0-1.4-0.3-2.4-0.9-3.1c-0.6-0.7-1.4-1-2.5-1
		c-1,0-1.8,0.2-2.4,0.7c-0.6,0.5-1.1,1-1.4,1.7c-0.3,0.7-0.4,1.4-0.4,2v5.3c0,0.3-0.1,0.5-0.2,0.7s-0.4,0.3-0.7,0.3
		c-0.3,0-0.5-0.1-0.7-0.3c-0.2-0.2-0.3-0.4-0.3-0.7v-10.4c0-0.3,0.1-0.5,0.3-0.7c0.2-0.2,0.4-0.2,0.7-0.2c0.2,0,0.4,0.1,0.6,0.2
		c0.2,0.2,0.3,0.4,0.3,0.7v0.9c0.6-0.6,1.2-1.1,2-1.5c0.8-0.4,1.6-0.5,2.4-0.5c1.4,0,2.6,0.5,3.5,1.4c0.9,0.9,1.4,2.4,1.4,4.3v5.8
		c0,0.3-0.1,0.5-0.2,0.7C163.6,503.3,163.3,503.4,163.1,503.4z"/>
	<path d="M169.5,503.4c-0.2,0-0.4-0.1-0.6-0.2s-0.3-0.4-0.3-0.7v-9.1c0-0.3-0.1-0.4-0.4-0.4h-1.2c-0.2,0-0.4-0.1-0.6-0.2
		c-0.2-0.2-0.2-0.4-0.2-0.6s0.1-0.4,0.2-0.6c0.2-0.2,0.4-0.2,0.6-0.2h1.2c0.3,0,0.4-0.1,0.4-0.4v-1.5c0-1.3,0.4-2.3,1.1-3
		c0.7-0.7,1.7-1.1,2.9-1.1c0.2,0,0.5,0,0.8,0.1c0.3,0,0.5,0.1,0.7,0.2c0.4,0.1,0.5,0.4,0.5,0.8c0,0.3-0.1,0.6-0.3,0.8
		c-0.2,0.2-0.5,0.3-0.8,0.2c-0.2-0.1-0.3-0.1-0.5-0.1c-0.2,0-0.3,0-0.5,0c-0.5,0-1,0.2-1.4,0.6c-0.4,0.4-0.6,1-0.6,1.8v1.4
		c0,0.3,0.1,0.4,0.4,0.4h2.5c0.2,0,0.4,0.1,0.6,0.2c0.2,0.2,0.2,0.4,0.2,0.6s-0.1,0.4-0.2,0.6c-0.2,0.2-0.4,0.2-0.6,0.2h-2.5
		c-0.3,0-0.4,0.1-0.4,0.4v9.1c0,0.3-0.1,0.5-0.3,0.7C169.9,503.4,169.7,503.4,169.5,503.4z M177.9,488.2c-0.4,0-0.8-0.1-1.1-0.4
		c-0.3-0.3-0.4-0.6-0.4-1c0-0.4,0.1-0.8,0.4-1.1c0.3-0.3,0.6-0.4,1.1-0.4c0.4,0,0.8,0.1,1.1,0.4c0.3,0.3,0.4,0.6,0.4,1.1
		c0,0.4-0.1,0.8-0.4,1C178.7,488.1,178.3,488.2,177.9,488.2z M178,503.4c-0.3,0-0.5-0.1-0.7-0.3c-0.2-0.2-0.3-0.4-0.3-0.7v-10.6
		c0-0.3,0.1-0.5,0.3-0.7c0.2-0.2,0.4-0.2,0.7-0.2c0.2,0,0.4,0.1,0.6,0.2c0.2,0.2,0.3,0.4,0.3,0.7v10.6c0,0.3-0.1,0.5-0.2,0.7
		S178.3,503.4,178,503.4z"/>
	<path d="M187.9,503.4c-1.7,0-3.1-0.6-4.2-1.8c-1.1-1.2-1.7-2.7-1.7-4.5c0-1.8,0.6-3.3,1.7-4.4c1.1-1.1,2.5-1.7,4.2-1.7
		c1.8,0,3.2,0.6,4.3,1.9v-6.8c0-0.3,0.1-0.5,0.3-0.7c0.2-0.2,0.4-0.2,0.6-0.2c0.2,0,0.5,0.1,0.7,0.2c0.2,0.2,0.3,0.4,0.3,0.7v16.2
		c0,0.3-0.1,0.5-0.3,0.7s-0.4,0.3-0.7,0.3s-0.5-0.1-0.7-0.3s-0.2-0.4-0.2-0.7v-0.8c-0.5,0.6-1.1,1.1-1.8,1.4
		C189.6,503.3,188.8,503.4,187.9,503.4z M187.9,501.7c1.3,0,2.3-0.4,3.1-1.2s1.2-1.9,1.2-3.4c0-1.5-0.4-2.6-1.2-3.3
		c-0.8-0.7-1.8-1.1-3.1-1.1c-1.2,0-2.2,0.4-2.9,1.3c-0.7,0.9-1.1,1.9-1.1,3.2c0,1.3,0.4,2.4,1.1,3.3
		C185.8,501.3,186.8,501.7,187.9,501.7z"/>
	<path d="M203.4,503.4c-1.9,0-3.5-0.6-4.7-1.7S197,499,197,497c0-1.1,0.2-2.1,0.7-3c0.5-0.9,1.2-1.6,2.1-2.2c0.9-0.5,2-0.8,3.2-0.8
		c1.3,0,2.3,0.3,3.2,0.8c0.8,0.5,1.4,1.2,1.8,2c0.4,0.8,0.6,1.6,0.6,2.3c0,0.5-0.1,0.9-0.3,1.2c-0.2,0.3-0.5,0.5-0.9,0.5h-8
		c-0.2,0-0.3,0-0.4,0c-0.1,0-0.1,0.1-0.1,0.3c0,0.5,0.2,1,0.5,1.5c0.3,0.6,0.7,1,1.3,1.4c0.6,0.4,1.2,0.6,2,0.7
		c0.8,0.1,1.6,0,2.4-0.2c0.8-0.2,1.5-0.6,2.1-1c0.1-0.1,0.3-0.2,0.5-0.2c0.2,0,0.4,0.1,0.6,0.2c0.2,0.2,0.3,0.4,0.3,0.6
		c0,0.2-0.1,0.5-0.4,0.7c-0.7,0.5-1.4,0.9-2.2,1.2C205,503.3,204.2,503.4,203.4,503.4z M206,496.3c0.2,0,0.4-0.1,0.5-0.3
		c0.1-0.2,0.1-0.4,0.1-0.7c-0.1-0.7-0.5-1.4-1.1-1.9c-0.7-0.6-1.5-0.9-2.5-0.9c-0.7,0-1.4,0.2-2,0.5c-0.6,0.3-1.1,0.8-1.4,1.3
		c-0.4,0.5-0.5,1.1-0.5,1.7c0,0.1,0.1,0.2,0.4,0.2L206,496.3z"/>
	<path d="M222.1,503.4c-0.3,0-0.5-0.1-0.7-0.3s-0.3-0.4-0.3-0.7v-5.7c0-1.4-0.3-2.4-0.9-3.1c-0.6-0.7-1.4-1-2.5-1
		c-1,0-1.8,0.2-2.4,0.7c-0.6,0.5-1.1,1-1.4,1.7c-0.3,0.7-0.4,1.4-0.4,2v5.3c0,0.3-0.1,0.5-0.2,0.7s-0.4,0.3-0.7,0.3
		c-0.3,0-0.5-0.1-0.7-0.3c-0.2-0.2-0.3-0.4-0.3-0.7v-10.4c0-0.3,0.1-0.5,0.3-0.7c0.2-0.2,0.4-0.2,0.7-0.2c0.2,0,0.4,0.1,0.6,0.2
		c0.2,0.2,0.3,0.4,0.3,0.7v0.9c0.6-0.6,1.2-1.1,2-1.5c0.8-0.4,1.6-0.5,2.4-0.5c1.4,0,2.6,0.5,3.5,1.4c0.9,0.9,1.4,2.4,1.4,4.3v5.8
		c0,0.3-0.1,0.5-0.2,0.7C222.5,503.3,222.3,503.4,222.1,503.4z"/>
	<path d="M231.9,503.4c-1.2,0-2.3-0.3-3.2-0.9s-1.6-1.3-2.1-2.3c-0.5-1-0.7-2-0.7-3.2c0-1.2,0.3-2.2,0.8-3.2s1.3-1.7,2.2-2.2
		c0.9-0.5,1.9-0.8,3.1-0.8c1.7,0,3,0.4,4.1,1.1c0.2,0.2,0.4,0.4,0.4,0.7c0,0.6-0.3,0.8-0.8,0.8c-0.1,0-0.1,0-0.2,0s-0.2,0-0.2-0.1
		c-0.4-0.2-0.8-0.4-1.3-0.7c-0.5-0.2-1.1-0.3-1.7-0.3c-1.3,0-2.3,0.4-3.1,1.3c-0.8,0.9-1.2,2-1.2,3.3c0,1.3,0.4,2.3,1.1,3.1
		c0.8,0.8,1.7,1.3,2.9,1.4c0.7,0,1.5-0.1,2.2-0.4s1.3-0.7,1.8-1.1c0.2-0.1,0.3-0.2,0.5-0.2c0.2,0,0.4,0.1,0.6,0.3
		c0.2,0.2,0.2,0.4,0.2,0.6s-0.1,0.5-0.4,0.8c-0.6,0.6-1.3,1-2.1,1.3C233.9,503.3,233,503.4,231.9,503.4z"/>
	<path d="M241,488.2c-0.4,0-0.8-0.1-1.1-0.4c-0.3-0.3-0.4-0.6-0.4-1c0-0.4,0.1-0.8,0.4-1.1c0.3-0.3,0.6-0.4,1.1-0.4
		c0.4,0,0.8,0.1,1.1,0.4c0.3,0.3,0.4,0.6,0.4,1.1c0,0.4-0.1,0.8-0.4,1C241.8,488.1,241.5,488.2,241,488.2z M241.2,503.4
		c-0.3,0-0.5-0.1-0.7-0.3c-0.2-0.2-0.3-0.4-0.3-0.7v-10.6c0-0.3,0.1-0.5,0.3-0.7c0.2-0.2,0.4-0.2,0.7-0.2c0.2,0,0.4,0.1,0.6,0.2
		c0.2,0.2,0.3,0.4,0.3,0.7v10.6c0,0.3-0.1,0.5-0.2,0.7C241.7,503.3,241.4,503.4,241.2,503.4z"/>
	<path d="M251.1,503.4c-1.7,0-3.1-0.6-4.2-1.8c-1.1-1.2-1.7-2.7-1.7-4.5c0-1.8,0.6-3.3,1.7-4.4c1.1-1.1,2.5-1.7,4.2-1.7
		c1.8,0,3.2,0.6,4.3,1.9v-0.7c0-0.3,0.1-0.5,0.3-0.7c0.2-0.2,0.4-0.2,0.6-0.2c0.2,0,0.5,0.1,0.7,0.2c0.2,0.2,0.3,0.4,0.3,0.7v10.4
		c0,0.3-0.1,0.5-0.3,0.7s-0.4,0.3-0.7,0.3s-0.5-0.1-0.7-0.3s-0.2-0.4-0.2-0.7v-1c-0.5,0.6-1.1,1.1-1.8,1.4
		C252.8,503.3,252,503.4,251.1,503.4z M251.1,501.7c1.3,0,2.3-0.4,3.1-1.2s1.2-1.9,1.2-3.4c0-1.5-0.4-2.6-1.2-3.3
		c-0.8-0.7-1.8-1.1-3.1-1.1c-1.2,0-2.2,0.4-2.9,1.3c-0.7,0.9-1.1,1.9-1.1,3.2c0,1.3,0.4,2.4,1.1,3.3
		C248.9,501.3,249.9,501.7,251.1,501.7z"/>
	<path d="M261.7,503.4c-0.3,0-0.5-0.1-0.7-0.3c-0.2-0.2-0.3-0.4-0.3-0.7v-16.4c0-0.3,0.1-0.5,0.3-0.7c0.2-0.2,0.4-0.2,0.7-0.2
		c0.2,0,0.4,0.1,0.6,0.2c0.2,0.2,0.3,0.4,0.3,0.7v16.4c0,0.3-0.1,0.5-0.2,0.7S262,503.4,261.7,503.4z"/>
	<path d="M267.4,488.2c-0.4,0-0.8-0.1-1.1-0.4c-0.3-0.3-0.4-0.6-0.4-1c0-0.4,0.1-0.8,0.4-1.1c0.3-0.3,0.6-0.4,1.1-0.4
		c0.4,0,0.8,0.1,1.1,0.4c0.3,0.3,0.4,0.6,0.4,1.1c0,0.4-0.1,0.8-0.4,1C268.2,488.1,267.9,488.2,267.4,488.2z M267.5,503.4
		c-0.3,0-0.5-0.1-0.7-0.3c-0.2-0.2-0.3-0.4-0.3-0.7v-10.6c0-0.3,0.1-0.5,0.3-0.7c0.2-0.2,0.4-0.2,0.7-0.2c0.2,0,0.4,0.1,0.6,0.2
		c0.2,0.2,0.3,0.4,0.3,0.7v10.6c0,0.3-0.1,0.5-0.2,0.7C268,503.3,267.8,503.4,267.5,503.4z"/>
	<path d="M277.5,503.4c-1.7,0-3.1-0.6-4.2-1.8c-1.1-1.2-1.7-2.7-1.7-4.5c0-1.8,0.6-3.3,1.7-4.4c1.1-1.1,2.5-1.7,4.2-1.7
		c1.8,0,3.2,0.6,4.3,1.9v-6.8c0-0.3,0.1-0.5,0.3-0.7c0.2-0.2,0.4-0.2,0.6-0.2c0.2,0,0.5,0.1,0.7,0.2c0.2,0.2,0.3,0.4,0.3,0.7v16.2
		c0,0.3-0.1,0.5-0.3,0.7s-0.4,0.3-0.7,0.3s-0.5-0.1-0.7-0.3s-0.2-0.4-0.2-0.7v-0.8c-0.5,0.6-1.1,1.1-1.8,1.4
		C279.2,503.3,278.4,503.4,277.5,503.4z M277.5,501.7c1.3,0,2.3-0.4,3.1-1.2s1.2-1.9,1.2-3.4c0-1.5-0.4-2.6-1.2-3.3
		c-0.8-0.7-1.8-1.1-3.1-1.1c-1.2,0-2.2,0.4-2.9,1.3c-0.7,0.9-1.1,1.9-1.1,3.2c0,1.3,0.4,2.4,1.1,3.3
		C275.3,501.3,276.3,501.7,277.5,501.7z"/>
	<path d="M292.4,503.4c-1.7,0-3.1-0.6-4.2-1.8c-1.1-1.2-1.7-2.7-1.7-4.5c0-1.8,0.6-3.3,1.7-4.4c1.1-1.1,2.5-1.7,4.2-1.7
		c1.8,0,3.2,0.6,4.3,1.9v-0.7c0-0.3,0.1-0.5,0.3-0.7c0.2-0.2,0.4-0.2,0.6-0.2c0.2,0,0.5,0.1,0.7,0.2c0.2,0.2,0.3,0.4,0.3,0.7v10.4
		c0,0.3-0.1,0.5-0.3,0.7s-0.4,0.3-0.7,0.3s-0.5-0.1-0.7-0.3s-0.2-0.4-0.2-0.7v-1c-0.5,0.6-1.1,1.1-1.8,1.4
		C294.1,503.3,293.3,503.4,292.4,503.4z M292.4,501.7c1.3,0,2.3-0.4,3.1-1.2s1.2-1.9,1.2-3.4c0-1.5-0.4-2.6-1.2-3.3
		c-0.8-0.7-1.8-1.1-3.1-1.1c-1.2,0-2.2,0.4-2.9,1.3c-0.7,0.9-1.1,1.9-1.1,3.2c0,1.3,0.4,2.4,1.1,3.3
		C290.3,501.3,291.2,501.7,292.4,501.7z"/>
	<path d="M307.4,503.4c-1.7,0-3.1-0.6-4.2-1.8c-1.1-1.2-1.7-2.7-1.7-4.5c0-1.8,0.6-3.3,1.7-4.4c1.1-1.1,2.5-1.7,4.2-1.7
		c1.8,0,3.2,0.6,4.3,1.9v-6.8c0-0.3,0.1-0.5,0.3-0.7c0.2-0.2,0.4-0.2,0.6-0.2c0.2,0,0.5,0.1,0.7,0.2c0.2,0.2,0.3,0.4,0.3,0.7v16.2
		c0,0.3-0.1,0.5-0.3,0.7s-0.4,0.3-0.7,0.3s-0.5-0.1-0.7-0.3s-0.2-0.4-0.2-0.7v-0.8c-0.5,0.6-1.1,1.1-1.8,1.4
		C309.1,503.3,308.3,503.4,307.4,503.4z M307.4,501.7c1.3,0,2.3-0.4,3.1-1.2s1.2-1.9,1.2-3.4c0-1.5-0.4-2.6-1.2-3.3
		c-0.8-0.7-1.8-1.1-3.1-1.1c-1.2,0-2.2,0.4-2.9,1.3c-0.7,0.9-1.1,1.9-1.1,3.2c0,1.3,0.4,2.4,1.1,3.3
		C305.2,501.3,306.2,501.7,307.4,501.7z"/>
</g>
<g>
	<path d="M631.4,503.4c-0.3,0-0.5-0.1-0.7-0.3c-0.2-0.2-0.3-0.4-0.3-0.7v-15.3c0-0.3,0.1-0.5,0.3-0.7c0.2-0.2,0.4-0.2,0.7-0.2
		c0.3,0,0.6,0.1,0.7,0.2c0.2,0.2,0.3,0.4,0.3,0.7v15.3c0,0.2-0.1,0.5-0.3,0.7C632,503.3,631.7,503.4,631.4,503.4z"/>
	<path d="M646.9,503.4c-0.3,0-0.5-0.1-0.7-0.3c-0.2-0.2-0.3-0.4-0.3-0.7v-5.7c0-1.4-0.3-2.4-0.9-3.1c-0.6-0.7-1.4-1-2.5-1
		c-1,0-1.8,0.2-2.4,0.7c-0.6,0.5-1.1,1-1.3,1.7c-0.3,0.7-0.4,1.4-0.4,2v5.3c0,0.3-0.1,0.5-0.2,0.7s-0.4,0.3-0.7,0.3
		c-0.3,0-0.5-0.1-0.7-0.3c-0.2-0.2-0.3-0.4-0.3-0.7v-10.4c0-0.3,0.1-0.5,0.3-0.7c0.2-0.2,0.4-0.2,0.7-0.2c0.2,0,0.4,0.1,0.6,0.2
		c0.2,0.2,0.3,0.4,0.3,0.7v0.9c0.6-0.6,1.2-1.1,2-1.5c0.8-0.4,1.6-0.5,2.4-0.5c1.4,0,2.6,0.5,3.5,1.4c0.9,0.9,1.4,2.4,1.4,4.3v5.8
		c0,0.3-0.1,0.5-0.2,0.7S647.2,503.4,646.9,503.4z"/>
	<path d="M655.8,503.4c-1.1,0-2-0.3-2.7-1s-1-1.6-1-2.8v-6.1c0-0.3-0.1-0.4-0.4-0.4h-1c-0.2,0-0.4-0.1-0.6-0.2
		c-0.2-0.2-0.2-0.4-0.2-0.6s0.1-0.4,0.2-0.6c0.2-0.2,0.4-0.2,0.6-0.2h1c0.3,0,0.4-0.1,0.4-0.4v-3.9c0-0.3,0.1-0.5,0.3-0.7
		c0.2-0.2,0.4-0.2,0.6-0.2c0.2,0,0.5,0.1,0.7,0.2c0.2,0.2,0.3,0.4,0.3,0.7v3.9c0,0.3,0.1,0.4,0.4,0.4h2.9c0.2,0,0.4,0.1,0.6,0.2
		c0.2,0.2,0.2,0.4,0.2,0.6s-0.1,0.4-0.2,0.6c-0.2,0.2-0.4,0.2-0.6,0.2h-2.9c-0.3,0-0.4,0.1-0.4,0.4v6c0,1.4,0.7,2.2,2,2.2
		c0.3,0,0.6,0,0.8-0.1s0.4-0.1,0.5-0.1c0.2,0,0.4,0.1,0.6,0.3c0.2,0.2,0.2,0.4,0.2,0.6c0,0.4-0.2,0.7-0.6,0.8
		c-0.3,0.1-0.6,0.2-0.9,0.2C656.4,503.4,656.1,503.4,655.8,503.4z"/>
	<path d="M666.7,503.4c-1.9,0-3.5-0.6-4.7-1.7s-1.7-2.7-1.7-4.8c0-1.1,0.2-2.1,0.7-3c0.5-0.9,1.2-1.6,2.1-2.2c0.9-0.5,2-0.8,3.2-0.8
		c1.3,0,2.3,0.3,3.2,0.8c0.8,0.5,1.4,1.2,1.8,2c0.4,0.8,0.6,1.6,0.6,2.3c0,0.5-0.1,0.9-0.3,1.2c-0.2,0.3-0.5,0.5-0.9,0.5h-8
		c-0.2,0-0.3,0-0.4,0s-0.1,0.1-0.1,0.3c0,0.5,0.2,1,0.5,1.5c0.3,0.6,0.7,1,1.3,1.4c0.6,0.4,1.2,0.6,2,0.7c0.8,0.1,1.6,0,2.4-0.2
		c0.8-0.2,1.5-0.6,2.1-1c0.1-0.1,0.3-0.2,0.5-0.2c0.2,0,0.4,0.1,0.6,0.2c0.2,0.2,0.3,0.4,0.3,0.6c0,0.2-0.1,0.5-0.4,0.7
		c-0.7,0.5-1.4,0.9-2.2,1.2C668.3,503.3,667.5,503.4,666.7,503.4z M669.3,496.3c0.2,0,0.4-0.1,0.5-0.3c0.1-0.2,0.1-0.4,0.1-0.7
		c-0.1-0.7-0.5-1.4-1.1-1.9c-0.7-0.6-1.5-0.9-2.5-0.9c-0.7,0-1.4,0.2-2,0.5c-0.6,0.3-1.1,0.8-1.4,1.3c-0.4,0.5-0.5,1.1-0.5,1.7
		c0,0.1,0.1,0.2,0.4,0.2L669.3,496.3z"/>
	<path d="M676.9,497.2v5.3c0,0.3-0.1,0.5-0.2,0.7s-0.4,0.3-0.7,0.3c-0.3,0-0.5-0.1-0.7-0.3c-0.2-0.2-0.3-0.4-0.3-0.7v-10.4
		c0-0.3,0.1-0.5,0.3-0.7c0.2-0.2,0.4-0.2,0.7-0.2c0.2,0,0.4,0.1,0.6,0.2c0.2,0.2,0.3,0.4,0.3,0.7v1c0.3-0.7,0.9-1.2,1.7-1.6
		c0.8-0.4,1.5-0.5,2.2-0.5c0.4,0,0.8,0.1,1.2,0.2c0.3,0.1,0.5,0.2,0.6,0.5c0.1,0.2,0.1,0.5,0.1,0.7c-0.2,0.6-0.6,0.8-1.1,0.7
		c-0.5-0.1-0.9-0.2-1.2-0.2c-1.1,0-1.9,0.4-2.5,1.2C677.2,494.9,676.9,495.9,676.9,497.2z"/>
	<path d="M689.9,503.4c-1.7,0-3.1-0.6-4.2-1.8c-1.1-1.2-1.7-2.7-1.7-4.5c0-1.8,0.6-3.3,1.7-4.4c1.1-1.1,2.5-1.7,4.2-1.7
		c1.8,0,3.2,0.6,4.3,1.9v-0.7c0-0.3,0.1-0.5,0.3-0.7c0.2-0.2,0.4-0.2,0.6-0.2c0.2,0,0.5,0.1,0.7,0.2c0.2,0.2,0.3,0.4,0.3,0.7v10.4
		c0,0.3-0.1,0.5-0.3,0.7c-0.2,0.2-0.4,0.3-0.7,0.3c-0.3,0-0.5-0.1-0.7-0.3s-0.2-0.4-0.2-0.7v-1c-0.5,0.6-1.1,1.1-1.8,1.4
		C691.6,503.3,690.8,503.4,689.9,503.4z M689.9,501.7c1.3,0,2.3-0.4,3.1-1.2s1.2-1.9,1.2-3.4c0-1.5-0.4-2.6-1.2-3.3
		c-0.8-0.7-1.8-1.1-3.1-1.1c-1.2,0-2.2,0.4-2.9,1.3c-0.7,0.9-1.1,1.9-1.1,3.2c0,1.3,0.4,2.4,1.1,3.3
		C687.7,501.3,688.7,501.7,689.9,501.7z"/>
	<path d="M705,503.4c-1.2,0-2.3-0.3-3.2-0.9s-1.6-1.3-2.1-2.3c-0.5-1-0.7-2-0.7-3.2c0-1.2,0.3-2.2,0.8-3.2s1.3-1.7,2.2-2.2
		c0.9-0.5,1.9-0.8,3.1-0.8c1.7,0,3,0.4,4.1,1.1c0.2,0.2,0.4,0.4,0.4,0.7c0,0.6-0.3,0.8-0.8,0.8c-0.1,0-0.1,0-0.2,0s-0.2,0-0.2-0.1
		c-0.4-0.2-0.8-0.4-1.3-0.7c-0.5-0.2-1.1-0.3-1.7-0.3c-1.3,0-2.3,0.4-3.1,1.3c-0.8,0.9-1.2,2-1.2,3.3c0,1.3,0.4,2.3,1.1,3.1
		c0.8,0.8,1.7,1.3,2.9,1.4c0.7,0,1.5-0.1,2.2-0.4s1.3-0.7,1.8-1.1c0.2-0.1,0.3-0.2,0.5-0.2c0.2,0,0.4,0.1,0.6,0.3
		c0.2,0.2,0.2,0.4,0.2,0.6s-0.1,0.5-0.4,0.8c-0.6,0.6-1.3,1-2.1,1.3C706.9,503.3,706,503.4,705,503.4z"/>
	<path d="M718.5,503.4c-1.2,0-2.3-0.3-3.2-0.9s-1.6-1.3-2.1-2.3c-0.5-1-0.7-2-0.7-3.2c0-1.2,0.3-2.2,0.8-3.2s1.3-1.7,2.2-2.2
		c0.9-0.5,1.9-0.8,3.1-0.8c1.7,0,3,0.4,4.1,1.1c0.2,0.2,0.4,0.4,0.4,0.7c0,0.6-0.3,0.8-0.8,0.8c-0.1,0-0.1,0-0.2,0s-0.2,0-0.2-0.1
		c-0.4-0.2-0.8-0.4-1.3-0.7c-0.5-0.2-1.1-0.3-1.7-0.3c-1.3,0-2.3,0.4-3.1,1.3c-0.8,0.9-1.2,2-1.2,3.3c0,1.3,0.4,2.3,1.1,3.1
		c0.8,0.8,1.7,1.3,2.9,1.4c0.7,0,1.5-0.1,2.2-0.4s1.3-0.7,1.8-1.1c0.2-0.1,0.3-0.2,0.5-0.2c0.2,0,0.4,0.1,0.6,0.3
		c0.2,0.2,0.2,0.4,0.2,0.6s-0.1,0.5-0.4,0.8c-0.6,0.6-1.3,1-2.1,1.3C720.4,503.3,719.5,503.4,718.5,503.4z"/>
	<path d="M727.6,488.2c-0.4,0-0.8-0.1-1.1-0.4c-0.3-0.3-0.4-0.6-0.4-1c0-0.4,0.1-0.8,0.4-1.1c0.3-0.3,0.6-0.4,1.1-0.4
		c0.4,0,0.8,0.1,1.1,0.4c0.3,0.3,0.4,0.6,0.4,1.1c0,0.4-0.1,0.8-0.4,1C728.4,488.1,728.1,488.2,727.6,488.2z M727.7,503.4
		c-0.3,0-0.5-0.1-0.7-0.3s-0.3-0.4-0.3-0.7v-10.6c0-0.3,0.1-0.5,0.3-0.7c0.2-0.2,0.4-0.2,0.7-0.2c0.2,0,0.4,0.1,0.6,0.2
		s0.3,0.4,0.3,0.7v10.6c0,0.3-0.1,0.5-0.2,0.7S728,503.4,727.7,503.4z"/>
	<path d="M737.9,503.4c-1.2,0-2.2-0.3-3.1-0.8c-0.9-0.6-1.6-1.3-2.2-2.3c-0.5-1-0.8-2-0.8-3.2c0-1.2,0.3-2.2,0.8-3.2
		s1.3-1.6,2.2-2.2c0.9-0.5,2-0.8,3.1-0.8s2.2,0.3,3.1,0.8c0.9,0.5,1.7,1.3,2.2,2.2s0.8,2,0.8,3.2c0,1.2-0.3,2.3-0.8,3.2
		c-0.5,1-1.3,1.7-2.2,2.3C740.1,503.2,739,503.4,737.9,503.4z M737.9,501.7c1.3,0,2.3-0.4,3.1-1.3c0.8-0.9,1.2-2,1.2-3.3
		c0-1.2-0.4-2.3-1.2-3.2c-0.8-0.9-1.8-1.3-3.1-1.3c-1.3,0-2.3,0.4-3.1,1.3s-1.1,1.9-1.1,3.2c0,1.3,0.4,2.4,1.1,3.3
		S736.6,501.7,737.9,501.7z M735.8,487.9l3.8-3.2c0.3-0.2,0.6-0.4,0.8-0.4c0.3,0,0.6,0.1,0.8,0.3c0.2,0.2,0.3,0.5,0.3,0.8
		c0,0.3-0.2,0.6-0.5,0.8l-4.4,2.7c-0.2,0.1-0.3,0.1-0.5,0.1c-0.5,0-0.7-0.2-0.7-0.7C735.5,488.2,735.6,488,735.8,487.9z"/>
	<path d="M757.4,503.4c-0.3,0-0.5-0.1-0.7-0.3c-0.2-0.2-0.3-0.4-0.3-0.7v-5.7c0-1.4-0.3-2.4-0.9-3.1s-1.4-1-2.5-1
		c-1,0-1.8,0.2-2.4,0.7s-1.1,1-1.4,1.7c-0.3,0.7-0.4,1.4-0.4,2v5.3c0,0.3-0.1,0.5-0.2,0.7s-0.4,0.3-0.7,0.3c-0.3,0-0.5-0.1-0.7-0.3
		c-0.2-0.2-0.3-0.4-0.3-0.7v-10.4c0-0.3,0.1-0.5,0.3-0.7s0.4-0.2,0.7-0.2c0.2,0,0.4,0.1,0.6,0.2c0.2,0.2,0.3,0.4,0.3,0.7v0.9
		c0.6-0.6,1.2-1.1,2-1.5c0.8-0.4,1.6-0.5,2.4-0.5c1.4,0,2.6,0.5,3.5,1.4s1.4,2.4,1.4,4.3v5.8c0,0.3-0.1,0.5-0.2,0.7
		C757.9,503.3,757.7,503.4,757.4,503.4z"/>
</g>
<g>
	<path d="M124.5,331.7c-0.3,0-0.5-0.1-0.7-0.3c-0.2-0.2-0.3-0.4-0.3-0.7v-15.3c0-0.3,0.1-0.5,0.3-0.7c0.2-0.2,0.4-0.2,0.7-0.2
		c0.3,0,0.6,0.1,0.7,0.2c0.2,0.2,0.3,0.4,0.3,0.7v15.3c0,0.2-0.1,0.5-0.3,0.7C125,331.6,124.8,331.7,124.5,331.7z"/>
	<path d="M140,331.7c-0.3,0-0.5-0.1-0.7-0.3s-0.3-0.4-0.3-0.7v-5.6c0-1.4-0.3-2.4-0.9-3.1c-0.6-0.7-1.4-1-2.5-1
		c-1,0-1.8,0.2-2.4,0.7c-0.6,0.5-1.1,1-1.4,1.7s-0.4,1.3-0.4,2v5.3c0,0.3-0.1,0.5-0.2,0.7s-0.4,0.3-0.7,0.3c-0.3,0-0.5-0.1-0.7-0.3
		c-0.2-0.2-0.3-0.4-0.3-0.7v-10.4c0-0.3,0.1-0.5,0.3-0.7c0.2-0.2,0.4-0.2,0.7-0.2c0.2,0,0.4,0.1,0.6,0.2c0.2,0.2,0.3,0.4,0.3,0.7
		v0.9c0.6-0.6,1.2-1.1,2-1.5c0.8-0.4,1.6-0.5,2.4-0.5c1.4,0,2.6,0.5,3.5,1.4c0.9,0.9,1.4,2.4,1.4,4.3v5.8c0,0.3-0.1,0.5-0.2,0.7
		C140.5,331.6,140.3,331.7,140,331.7z"/>
	<path d="M148.9,331.7c-1.1,0-2-0.3-2.7-1c-0.6-0.7-1-1.6-1-2.8v-6.1c0-0.3-0.1-0.4-0.4-0.4h-1c-0.2,0-0.4-0.1-0.6-0.2
		c-0.2-0.2-0.2-0.4-0.2-0.6s0.1-0.4,0.2-0.6c0.2-0.2,0.4-0.2,0.6-0.2h1c0.3,0,0.4-0.1,0.4-0.4v-3.9c0-0.3,0.1-0.5,0.3-0.7
		c0.2-0.2,0.4-0.2,0.6-0.2c0.2,0,0.5,0.1,0.7,0.2c0.2,0.2,0.3,0.4,0.3,0.7v3.9c0,0.3,0.1,0.4,0.4,0.4h2.9c0.2,0,0.4,0.1,0.6,0.2
		c0.2,0.2,0.2,0.4,0.2,0.6s-0.1,0.4-0.2,0.6c-0.2,0.2-0.4,0.2-0.6,0.2h-2.9c-0.3,0-0.4,0.1-0.4,0.4v6c0,1.4,0.7,2.2,2,2.2
		c0.3,0,0.6,0,0.8-0.1c0.2-0.1,0.4-0.1,0.5-0.1c0.2,0,0.4,0.1,0.6,0.3c0.2,0.2,0.2,0.4,0.2,0.6c0,0.4-0.2,0.7-0.6,0.8
		c-0.3,0.1-0.6,0.2-0.9,0.2C149.4,331.7,149.1,331.7,148.9,331.7z"/>
	<path d="M159.8,331.7c-1.9,0-3.5-0.6-4.7-1.7c-1.2-1.1-1.7-2.7-1.7-4.8c0-1.1,0.2-2.1,0.7-3c0.5-0.9,1.2-1.6,2.1-2.2
		c0.9-0.5,2-0.8,3.2-0.8c1.3,0,2.3,0.3,3.2,0.8c0.8,0.5,1.4,1.2,1.8,2c0.4,0.8,0.6,1.6,0.6,2.3c0,0.5-0.1,0.9-0.3,1.2
		c-0.2,0.3-0.5,0.5-0.9,0.5h-8c-0.2,0-0.3,0-0.4,0c-0.1,0-0.1,0.1-0.1,0.3c0,0.5,0.2,1,0.5,1.5c0.3,0.6,0.7,1,1.3,1.4
		c0.6,0.4,1.2,0.6,2,0.7c0.8,0.1,1.6,0,2.4-0.2c0.8-0.2,1.5-0.6,2.1-1c0.1-0.1,0.3-0.2,0.5-0.2c0.2,0,0.4,0.1,0.6,0.2
		c0.2,0.2,0.3,0.4,0.3,0.6s-0.1,0.5-0.4,0.7c-0.7,0.5-1.4,0.9-2.2,1.2S160.6,331.7,159.8,331.7z M162.4,324.5c0.2,0,0.4-0.1,0.5-0.3
		c0.1-0.2,0.1-0.4,0.1-0.7c-0.1-0.7-0.5-1.4-1.1-1.9c-0.7-0.6-1.5-0.9-2.5-0.9c-0.7,0-1.4,0.2-2,0.5c-0.6,0.3-1.1,0.8-1.4,1.3
		c-0.4,0.5-0.5,1.1-0.5,1.7c0,0.1,0.1,0.2,0.4,0.2L162.4,324.5z"/>
	<path d="M173,336.9c-0.7,0-1.5-0.1-2.3-0.3c-0.8-0.2-1.5-0.5-2.1-0.8c-0.3-0.2-0.5-0.5-0.5-0.8c0-0.6,0.3-0.9,0.8-0.9
		c0.2,0,0.4,0.1,0.6,0.2c0.5,0.2,1,0.5,1.7,0.7c0.7,0.2,1.3,0.3,1.9,0.3c1.1,0,2.1-0.3,2.9-0.9c0.8-0.6,1.2-1.5,1.2-2.6v-2
		c-0.5,0.6-1.1,1.1-1.8,1.4c-0.7,0.3-1.5,0.5-2.4,0.5c-1.7,0-3.1-0.6-4.2-1.8c-1.1-1.2-1.7-2.7-1.7-4.5c0-1.8,0.6-3.3,1.7-4.4
		c1.1-1.1,2.5-1.7,4.2-1.7c1.8,0,3.2,0.6,4.3,1.9v-0.7c0-0.3,0.1-0.5,0.3-0.7s0.4-0.2,0.7-0.2c0.2,0,0.4,0.1,0.6,0.2
		c0.2,0.2,0.3,0.4,0.3,0.7v11.1c0,1.8-0.6,3.1-1.8,4.1C176.1,336.4,174.7,336.9,173,336.9z M173,330c1.3,0,2.3-0.4,3.1-1.2
		c0.8-0.8,1.2-1.9,1.2-3.4c0-1.5-0.4-2.6-1.2-3.3c-0.8-0.7-1.8-1.1-3.1-1.1c-1.2,0-2.2,0.4-2.9,1.3c-0.7,0.9-1.1,1.9-1.1,3.2
		c0,1.3,0.4,2.4,1.1,3.3C170.8,329.5,171.8,330,173,330z"/>
	<path d="M184.9,325.4v5.3c0,0.3-0.1,0.5-0.2,0.7s-0.4,0.3-0.7,0.3c-0.3,0-0.5-0.1-0.7-0.3c-0.2-0.2-0.3-0.4-0.3-0.7v-10.4
		c0-0.3,0.1-0.5,0.3-0.7c0.2-0.2,0.4-0.2,0.7-0.2c0.2,0,0.4,0.1,0.6,0.2c0.2,0.2,0.3,0.4,0.3,0.7v1c0.3-0.7,0.9-1.2,1.7-1.6
		c0.8-0.4,1.5-0.5,2.2-0.5c0.4,0,0.8,0.1,1.2,0.2c0.3,0.1,0.5,0.2,0.6,0.5s0.1,0.5,0.1,0.7c-0.2,0.6-0.6,0.8-1.1,0.7
		c-0.5-0.1-0.9-0.2-1.2-0.2c-1.1,0-1.9,0.4-2.5,1.2C185.2,323.1,184.9,324.2,184.9,325.4z"/>
	<path d="M194.1,316.5c-0.4,0-0.8-0.1-1.1-0.4c-0.3-0.3-0.4-0.6-0.4-1c0-0.4,0.1-0.8,0.4-1.1c0.3-0.3,0.6-0.4,1.1-0.4
		c0.4,0,0.8,0.1,1.1,0.4c0.3,0.3,0.4,0.6,0.4,1.1c0,0.4-0.1,0.8-0.4,1C194.9,316.3,194.5,316.5,194.1,316.5z M194.2,331.7
		c-0.3,0-0.5-0.1-0.7-0.3c-0.2-0.2-0.3-0.4-0.3-0.7v-10.6c0-0.3,0.1-0.5,0.3-0.7c0.2-0.2,0.4-0.2,0.7-0.2c0.2,0,0.4,0.1,0.6,0.2
		c0.2,0.2,0.3,0.4,0.3,0.7v10.6c0,0.3-0.1,0.5-0.2,0.7C194.7,331.6,194.5,331.7,194.2,331.7z"/>
	<path d="M204.1,331.7c-1.7,0-3.1-0.6-4.2-1.8c-1.1-1.2-1.7-2.7-1.7-4.5c0-1.8,0.6-3.3,1.7-4.4c1.1-1.1,2.5-1.7,4.2-1.7
		c1.8,0,3.2,0.6,4.3,1.9v-6.8c0-0.3,0.1-0.5,0.3-0.7c0.2-0.2,0.4-0.2,0.6-0.2c0.2,0,0.5,0.1,0.7,0.2c0.2,0.2,0.3,0.4,0.3,0.7v16.2
		c0,0.3-0.1,0.5-0.3,0.7c-0.2,0.2-0.4,0.3-0.7,0.3s-0.5-0.1-0.7-0.3c-0.2-0.2-0.2-0.4-0.2-0.7v-0.8c-0.5,0.6-1.1,1.1-1.8,1.4
		S205,331.7,204.1,331.7z M204.1,330c1.3,0,2.3-0.4,3.1-1.2c0.8-0.8,1.2-1.9,1.2-3.4c0-1.5-0.4-2.6-1.2-3.3s-1.8-1.1-3.1-1.1
		c-1.2,0-2.2,0.4-2.9,1.3c-0.7,0.9-1.1,1.9-1.1,3.2c0,1.3,0.4,2.4,1.1,3.3C202,329.5,202.9,330,204.1,330z"/>
	<path d="M219.1,331.7c-1.7,0-3.1-0.6-4.2-1.8c-1.1-1.2-1.7-2.7-1.7-4.5c0-1.8,0.6-3.3,1.7-4.4c1.1-1.1,2.5-1.7,4.2-1.7
		c1.8,0,3.2,0.6,4.3,1.9v-0.7c0-0.3,0.1-0.5,0.3-0.7c0.2-0.2,0.4-0.2,0.6-0.2c0.2,0,0.5,0.1,0.7,0.2c0.2,0.2,0.3,0.4,0.3,0.7v10.4
		c0,0.3-0.1,0.5-0.3,0.7s-0.4,0.3-0.7,0.3s-0.5-0.1-0.7-0.3s-0.2-0.4-0.2-0.7v-1c-0.5,0.6-1.1,1.1-1.8,1.4S220,331.7,219.1,331.7z
		 M219.1,330c1.3,0,2.3-0.4,3.1-1.2c0.8-0.8,1.2-1.9,1.2-3.4c0-1.5-0.4-2.6-1.2-3.3s-1.8-1.1-3.1-1.1c-1.2,0-2.2,0.4-2.9,1.3
		c-0.7,0.9-1.1,1.9-1.1,3.2c0,1.3,0.4,2.4,1.1,3.3C216.9,329.5,217.9,330,219.1,330z"/>
	<path d="M234,331.7c-1.7,0-3.1-0.6-4.2-1.8c-1.1-1.2-1.7-2.7-1.7-4.5c0-1.8,0.6-3.3,1.7-4.4c1.1-1.1,2.5-1.7,4.2-1.7
		c1.8,0,3.2,0.6,4.3,1.9v-6.8c0-0.3,0.1-0.5,0.3-0.7c0.2-0.2,0.4-0.2,0.6-0.2c0.2,0,0.5,0.1,0.7,0.2c0.2,0.2,0.3,0.4,0.3,0.7v16.2
		c0,0.3-0.1,0.5-0.3,0.7c-0.2,0.2-0.4,0.3-0.7,0.3s-0.5-0.1-0.7-0.3c-0.2-0.2-0.2-0.4-0.2-0.7v-0.8c-0.5,0.6-1.1,1.1-1.8,1.4
		S234.9,331.7,234,331.7z M234,330c1.3,0,2.3-0.4,3.1-1.2c0.8-0.8,1.2-1.9,1.2-3.4c0-1.5-0.4-2.6-1.2-3.3s-1.8-1.1-3.1-1.1
		c-1.2,0-2.2,0.4-2.9,1.3c-0.7,0.9-1.1,1.9-1.1,3.2c0,1.3,0.4,2.4,1.1,3.3C231.9,329.5,232.8,330,234,330z"/>
</g>
<g>
	<path d="M700.6,327.7c-0.3,0-0.5-0.1-0.7-0.3s-0.3-0.4-0.3-0.7v-14c0-0.6,0.2-1.1,0.5-1.4c0.4-0.3,0.8-0.5,1.3-0.5h4.7
		c1.4,0,2.6,0.4,3.6,1.2c1,0.8,1.6,2,1.6,3.4c0,1.6-0.5,2.8-1.5,3.7c-1,0.9-2.2,1.3-3.6,1.3h-3.3c-0.8,0-1.2,0.5-1.2,1.5v4.7
		c0,0.2-0.1,0.5-0.3,0.7S700.9,327.7,700.6,327.7z M702.8,319.1h2.8c0.6,0,1.1-0.1,1.7-0.3c0.6-0.2,1-0.6,1.4-1.1
		c0.4-0.5,0.6-1.2,0.6-2c0-1.1-0.4-1.8-1.1-2.3c-0.7-0.5-1.5-0.7-2.4-0.7h-3c-0.8,0-1.2,0.5-1.2,1.5v3.5c0,0.5,0.1,0.9,0.2,1.1
		C701.9,318.9,702.3,319.1,702.8,319.1z"/>
	<path d="M716,321.5v5.3c0,0.3-0.1,0.5-0.2,0.7s-0.4,0.3-0.7,0.3c-0.3,0-0.5-0.1-0.7-0.3c-0.2-0.2-0.3-0.4-0.3-0.7v-10.4
		c0-0.3,0.1-0.5,0.3-0.7c0.2-0.2,0.4-0.2,0.7-0.2c0.2,0,0.4,0.1,0.6,0.2c0.2,0.2,0.3,0.4,0.3,0.7v1c0.3-0.7,0.9-1.2,1.7-1.6
		c0.8-0.4,1.5-0.5,2.2-0.5c0.4,0,0.8,0.1,1.2,0.2c0.3,0.1,0.5,0.2,0.6,0.5s0.1,0.5,0.1,0.7c-0.2,0.6-0.6,0.8-1.1,0.7
		c-0.5-0.1-0.9-0.2-1.2-0.2c-1.1,0-1.9,0.4-2.5,1.2C716.3,319.2,716,320.2,716,321.5z"/>
	<path d="M725.2,312.5c-0.4,0-0.8-0.1-1.1-0.4c-0.3-0.3-0.4-0.6-0.4-1c0-0.4,0.1-0.8,0.4-1.1c0.3-0.3,0.6-0.4,1.1-0.4
		s0.8,0.1,1.1,0.4c0.3,0.3,0.4,0.6,0.4,1.1c0,0.4-0.1,0.8-0.4,1C726,312.4,725.6,312.5,725.2,312.5z M725.3,327.7
		c-0.3,0-0.5-0.1-0.7-0.3s-0.3-0.4-0.3-0.7v-10.6c0-0.3,0.1-0.5,0.3-0.7c0.2-0.2,0.4-0.2,0.7-0.2c0.2,0,0.4,0.1,0.6,0.2
		c0.2,0.2,0.3,0.4,0.3,0.7v10.6c0,0.3-0.1,0.5-0.2,0.7C725.8,327.7,725.6,327.7,725.3,327.7z"/>
	<path d="M734.5,327.7c-0.3,0-0.6-0.1-0.9-0.3s-0.5-0.4-0.6-0.7l-4.2-10.2c-0.1-0.2-0.1-0.3-0.1-0.4c0-0.3,0.1-0.6,0.4-0.7
		c0.3-0.1,0.5-0.2,0.7-0.2c0.4,0,0.6,0.2,0.8,0.6l3.5,8.8c0.1,0.2,0.2,0.3,0.5,0.3c0.2,0,0.4-0.1,0.5-0.3l3.5-8.7
		c0.2-0.4,0.4-0.6,0.8-0.6c0.3,0,0.5,0.1,0.7,0.2c0.2,0.2,0.3,0.4,0.3,0.6c0,0.1,0,0.2-0.1,0.4l-4.2,10.2c-0.1,0.3-0.3,0.6-0.6,0.7
		S734.8,327.7,734.5,327.7z"/>
	<path d="M743.9,312.5c-0.4,0-0.8-0.1-1.1-0.4c-0.3-0.3-0.4-0.6-0.4-1c0-0.4,0.1-0.8,0.4-1.1c0.3-0.3,0.6-0.4,1.1-0.4
		c0.4,0,0.8,0.1,1.1,0.4c0.3,0.3,0.4,0.6,0.4,1.1c0,0.4-0.1,0.8-0.4,1C744.6,312.4,744.3,312.5,743.9,312.5z M744,327.7
		c-0.3,0-0.5-0.1-0.7-0.3c-0.2-0.2-0.3-0.4-0.3-0.7v-10.6c0-0.3,0.1-0.5,0.3-0.7c0.2-0.2,0.4-0.2,0.7-0.2c0.2,0,0.4,0.1,0.6,0.2
		c0.2,0.2,0.3,0.4,0.3,0.7v10.6c0,0.3-0.1,0.5-0.2,0.7S744.3,327.7,744,327.7z"/>
	<path d="M749.6,327.7c-0.3,0-0.5-0.1-0.7-0.3s-0.3-0.4-0.3-0.7v-16.4c0-0.3,0.1-0.5,0.3-0.7c0.2-0.2,0.4-0.2,0.7-0.2
		c0.2,0,0.4,0.1,0.6,0.2s0.3,0.4,0.3,0.7v16.4c0,0.3-0.1,0.5-0.2,0.7S749.9,327.7,749.6,327.7z"/>
	<path d="M760,327.7c-1.9,0-3.5-0.6-4.7-1.7c-1.2-1.1-1.7-2.7-1.7-4.8c0-1.1,0.2-2.1,0.7-3c0.5-0.9,1.2-1.6,2.1-2.2
		c0.9-0.5,2-0.8,3.2-0.8c1.3,0,2.3,0.3,3.2,0.8c0.8,0.5,1.4,1.2,1.8,2c0.4,0.8,0.6,1.6,0.6,2.3c0,0.5-0.1,0.9-0.3,1.2
		s-0.5,0.5-0.9,0.5h-8c-0.2,0-0.3,0-0.4,0c-0.1,0-0.1,0.1-0.1,0.3c0,0.5,0.2,1,0.5,1.5c0.3,0.6,0.7,1,1.3,1.4c0.6,0.4,1.2,0.6,2,0.7
		c0.8,0.1,1.6,0,2.4-0.2c0.8-0.2,1.5-0.6,2.1-1c0.1-0.1,0.3-0.2,0.5-0.2c0.2,0,0.4,0.1,0.6,0.2c0.2,0.2,0.3,0.4,0.3,0.6
		s-0.1,0.5-0.4,0.7c-0.7,0.5-1.4,0.9-2.2,1.2S760.8,327.7,760,327.7z M762.6,320.6c0.2,0,0.4-0.1,0.5-0.3c0.1-0.2,0.1-0.4,0.1-0.7
		c-0.1-0.7-0.5-1.4-1.1-1.9c-0.7-0.6-1.5-0.9-2.5-0.9c-0.7,0-1.4,0.2-2,0.5s-1.1,0.8-1.4,1.3c-0.4,0.5-0.5,1.1-0.5,1.7
		c0,0.1,0.1,0.2,0.4,0.2L762.6,320.6z"/>
	<path d="M773.2,332.9c-0.7,0-1.5-0.1-2.3-0.3c-0.8-0.2-1.5-0.5-2.1-0.8c-0.3-0.2-0.5-0.5-0.5-0.8c0-0.6,0.3-0.9,0.8-0.9
		c0.2,0,0.4,0.1,0.6,0.2c0.5,0.2,1,0.5,1.7,0.7c0.7,0.2,1.3,0.3,1.9,0.3c1.1,0,2.1-0.3,2.9-0.9s1.2-1.5,1.2-2.6v-2
		c-0.5,0.6-1.1,1.1-1.8,1.4s-1.5,0.5-2.4,0.5c-1.7,0-3.1-0.6-4.2-1.8s-1.7-2.7-1.7-4.5c0-1.8,0.6-3.3,1.7-4.4s2.5-1.7,4.2-1.7
		c1.8,0,3.2,0.6,4.3,1.9v-0.7c0-0.3,0.1-0.5,0.3-0.7s0.4-0.2,0.7-0.2c0.2,0,0.4,0.1,0.6,0.2c0.2,0.2,0.3,0.4,0.3,0.7v11.1
		c0,1.8-0.6,3.1-1.8,4.1C776.4,332.5,774.9,332.9,773.2,332.9z M773.2,326c1.3,0,2.3-0.4,3.1-1.2c0.8-0.8,1.2-1.9,1.2-3.4
		c0-1.5-0.4-2.6-1.2-3.3s-1.8-1.1-3.1-1.1c-1.2,0-2.2,0.4-2.9,1.3c-0.7,0.9-1.1,1.9-1.1,3.2c0,1.3,0.4,2.4,1.1,3.3
		C771.1,325.6,772,326,773.2,326z"/>
	<path d="M784.4,312.5c-0.4,0-0.8-0.1-1.1-0.4c-0.3-0.3-0.4-0.6-0.4-1c0-0.4,0.1-0.8,0.4-1.1c0.3-0.3,0.6-0.4,1.1-0.4
		s0.8,0.1,1.1,0.4c0.3,0.3,0.4,0.6,0.4,1.1c0,0.4-0.1,0.8-0.4,1C785.2,312.4,784.8,312.5,784.4,312.5z M784.5,327.7
		c-0.3,0-0.5-0.1-0.7-0.3s-0.3-0.4-0.3-0.7v-10.6c0-0.3,0.1-0.5,0.3-0.7c0.2-0.2,0.4-0.2,0.7-0.2c0.2,0,0.4,0.1,0.6,0.2
		c0.2,0.2,0.3,0.4,0.3,0.7v10.6c0,0.3-0.1,0.5-0.2,0.7C785,327.7,784.8,327.7,784.5,327.7z"/>
	<path d="M794.6,327.7c-1.2,0-2.2-0.3-3.1-0.8c-0.9-0.6-1.6-1.3-2.2-2.3c-0.5-1-0.8-2-0.8-3.2c0-1.2,0.3-2.2,0.8-3.2
		s1.3-1.6,2.2-2.2c0.9-0.5,2-0.8,3.1-0.8c1.2,0,2.2,0.3,3.1,0.8c0.9,0.5,1.7,1.3,2.2,2.2c0.5,0.9,0.8,2,0.8,3.2
		c0,1.2-0.3,2.3-0.8,3.2c-0.5,1-1.3,1.7-2.2,2.3C796.8,327.5,795.8,327.7,794.6,327.7z M794.6,326c1.3,0,2.3-0.4,3.1-1.3
		c0.8-0.9,1.2-2,1.2-3.3c0-1.2-0.4-2.3-1.2-3.2c-0.8-0.9-1.8-1.3-3.1-1.3c-1.3,0-2.3,0.4-3.1,1.3c-0.8,0.9-1.1,1.9-1.1,3.2
		c0,1.3,0.4,2.4,1.1,3.3C792.3,325.6,793.3,326,794.6,326z"/>
	<path d="M807.9,327.7c-1.9,0-3.4-0.5-4.6-1.6c-0.2-0.2-0.3-0.4-0.3-0.7c0-0.3,0.1-0.5,0.3-0.7c0.2-0.2,0.4-0.2,0.5-0.2
		c0.2,0,0.5,0.1,0.8,0.4c0.4,0.4,0.9,0.6,1.4,0.8c0.5,0.2,1.2,0.3,1.8,0.3c1,0,1.7-0.2,2.2-0.5c0.5-0.4,0.7-0.8,0.7-1.5
		c0-0.6-0.3-1.1-0.8-1.4c-0.5-0.3-1.3-0.5-2.2-0.6c-0.5-0.1-1.2-0.2-1.9-0.3c-0.7-0.1-1.4-0.4-1.9-0.9c-0.6-0.4-0.8-1.1-0.8-2
		c0-1.1,0.4-2,1.2-2.7c0.8-0.7,2-1,3.5-1c0.9,0,1.7,0.1,2.4,0.3c0.7,0.2,1.3,0.5,1.6,0.8c0.2,0.2,0.3,0.4,0.3,0.7
		c0,0.2-0.1,0.4-0.2,0.6s-0.4,0.3-0.6,0.3c-0.1,0-0.2,0-0.3-0.1c-0.1-0.1-0.2-0.1-0.3-0.2c-0.5-0.3-0.9-0.5-1.4-0.6
		c-0.4-0.1-0.9-0.2-1.4-0.2c-0.9,0-1.6,0.2-2.1,0.5c-0.5,0.3-0.8,0.8-0.8,1.4c0,0.4,0.2,0.8,0.6,1c0.4,0.2,1.1,0.4,2.2,0.5
		c0.4,0.1,0.9,0.1,1.4,0.2s1.1,0.3,1.6,0.5c0.5,0.2,1,0.6,1.3,1c0.4,0.5,0.5,1.1,0.5,1.8c0,1.1-0.4,2.1-1.3,2.7
		C810.7,327.4,809.5,327.7,807.9,327.7z"/>
</g>
<g>
	<path d="M440.9,91.4c-0.4,0-0.7-0.1-1-0.3c-0.3-0.2-0.5-0.5-0.7-0.8l-5.5-14.7c-0.1-0.2-0.1-0.3-0.1-0.4c0-0.3,0.1-0.5,0.3-0.7
		c0.2-0.2,0.5-0.3,0.7-0.3c0.4,0,0.7,0.2,0.9,0.7l4.7,13c0.2,0.4,0.4,0.7,0.6,0.7c0.2,0,0.5-0.2,0.6-0.7l4.7-13
		c0.2-0.5,0.5-0.7,0.9-0.7c0.2,0,0.5,0.1,0.7,0.3c0.2,0.2,0.3,0.4,0.3,0.7c0,0.1,0,0.2-0.1,0.4l-5.5,14.7c-0.1,0.4-0.3,0.6-0.6,0.8
		C441.7,91.2,441.3,91.3,440.9,91.4z"/>
	<path d="M456.1,91.4c-1.9,0-3.5-0.6-4.7-1.7c-1.2-1.1-1.7-2.7-1.7-4.8c0-1.1,0.2-2.1,0.7-3s1.2-1.6,2.1-2.2c0.9-0.5,2-0.8,3.2-0.8
		c1.3,0,2.3,0.3,3.2,0.8c0.8,0.5,1.4,1.2,1.8,2c0.4,0.8,0.6,1.6,0.6,2.3c0,0.5-0.1,0.9-0.3,1.2c-0.2,0.3-0.5,0.5-0.9,0.5h-8
		c-0.2,0-0.3,0-0.4,0c-0.1,0-0.1,0.1-0.1,0.3c0,0.5,0.2,1,0.5,1.5c0.3,0.6,0.7,1,1.3,1.4c0.6,0.4,1.2,0.6,2,0.7
		c0.8,0.1,1.6,0,2.4-0.2c0.8-0.2,1.5-0.6,2.1-1c0.1-0.1,0.3-0.2,0.5-0.2c0.2,0,0.4,0.1,0.6,0.2c0.2,0.2,0.3,0.4,0.3,0.6
		c0,0.2-0.1,0.5-0.4,0.7c-0.7,0.5-1.4,0.9-2.2,1.2C457.7,91.2,456.9,91.4,456.1,91.4z M458.7,84.2c0.2,0,0.4-0.1,0.5-0.3
		c0.1-0.2,0.1-0.4,0.1-0.7c-0.1-0.7-0.5-1.4-1.1-1.9c-0.7-0.6-1.5-0.9-2.5-0.9c-0.7,0-1.4,0.2-2,0.5c-0.6,0.3-1.1,0.8-1.4,1.3
		c-0.4,0.5-0.5,1.1-0.5,1.7c0,0.1,0.1,0.2,0.4,0.2L458.7,84.2z"/>
	<path d="M470.3,91.4c-1.2,0-2.3-0.3-3.2-0.9s-1.6-1.3-2.1-2.3s-0.7-2-0.7-3.2c0-1.2,0.3-2.2,0.8-3.2c0.5-0.9,1.3-1.7,2.2-2.2
		c0.9-0.5,1.9-0.8,3.1-0.8c1.7,0,3,0.4,4.1,1.1c0.2,0.2,0.4,0.4,0.4,0.7c0,0.6-0.3,0.8-0.8,0.8c-0.1,0-0.1,0-0.2,0
		c-0.1,0-0.2,0-0.2-0.1c-0.4-0.2-0.8-0.4-1.3-0.7c-0.5-0.2-1.1-0.3-1.7-0.3c-1.3,0-2.3,0.4-3.1,1.3c-0.8,0.9-1.2,2-1.2,3.3
		c0,1.3,0.4,2.3,1.1,3.1c0.8,0.8,1.7,1.3,2.9,1.4c0.7,0,1.5-0.1,2.2-0.4c0.7-0.3,1.3-0.7,1.8-1.1c0.2-0.1,0.3-0.2,0.5-0.2
		c0.2,0,0.4,0.1,0.6,0.3c0.2,0.2,0.2,0.4,0.2,0.6s-0.1,0.5-0.4,0.8c-0.6,0.6-1.3,1-2.1,1.3C472.2,91.2,471.3,91.4,470.3,91.4z"/>
	<path d="M482.8,91.4c-1.1,0-2-0.3-2.7-1c-0.6-0.7-1-1.6-1-2.8v-6.1c0-0.3-0.1-0.4-0.4-0.4h-1c-0.2,0-0.4-0.1-0.6-0.2
		c-0.2-0.2-0.2-0.4-0.2-0.6s0.1-0.4,0.2-0.6c0.2-0.2,0.4-0.2,0.6-0.2h1c0.3,0,0.4-0.1,0.4-0.4V75c0-0.3,0.1-0.5,0.3-0.7
		c0.2-0.2,0.4-0.2,0.6-0.2c0.2,0,0.5,0.1,0.7,0.2c0.2,0.2,0.3,0.4,0.3,0.7v3.9c0,0.3,0.1,0.4,0.4,0.4h2.9c0.2,0,0.4,0.1,0.6,0.2
		c0.2,0.2,0.2,0.4,0.2,0.6s-0.1,0.4-0.2,0.6c-0.2,0.2-0.4,0.2-0.6,0.2h-2.9c-0.3,0-0.4,0.1-0.4,0.4v6c0,1.4,0.7,2.2,2,2.2
		c0.3,0,0.6,0,0.8-0.1c0.2-0.1,0.4-0.1,0.5-0.1c0.2,0,0.5,0.1,0.6,0.3c0.2,0.2,0.2,0.4,0.2,0.6c0,0.4-0.2,0.7-0.6,0.8
		c-0.3,0.1-0.6,0.2-0.9,0.2S483.1,91.4,482.8,91.4z"/>
	<path d="M493.4,91.4c-1.2,0-2.2-0.3-3.1-0.8c-0.9-0.6-1.6-1.3-2.2-2.3c-0.5-1-0.8-2-0.8-3.2c0-1.2,0.3-2.2,0.8-3.2
		c0.5-0.9,1.3-1.6,2.2-2.2c0.9-0.5,2-0.8,3.1-0.8c1.2,0,2.2,0.3,3.1,0.8c0.9,0.5,1.7,1.3,2.2,2.2s0.8,2,0.8,3.2
		c0,1.2-0.3,2.3-0.8,3.2s-1.3,1.7-2.2,2.3C495.6,91.1,494.5,91.4,493.4,91.4z M493.4,89.7c1.3,0,2.3-0.4,3.1-1.3
		c0.8-0.9,1.2-2,1.2-3.3c0-1.2-0.4-2.3-1.2-3.2c-0.8-0.9-1.8-1.3-3.1-1.3c-1.3,0-2.3,0.4-3.1,1.3c-0.8,0.9-1.1,1.9-1.1,3.2
		c0,1.3,0.4,2.4,1.1,3.3C491.1,89.2,492.1,89.7,493.4,89.7z"/>
	<path d="M504.5,85.1v5.3c0,0.3-0.1,0.5-0.2,0.7s-0.4,0.3-0.7,0.3s-0.5-0.1-0.7-0.3s-0.3-0.4-0.3-0.7V80c0-0.3,0.1-0.5,0.3-0.7
		c0.2-0.2,0.4-0.2,0.7-0.2c0.2,0,0.4,0.1,0.6,0.2s0.3,0.4,0.3,0.7v1c0.3-0.7,0.9-1.2,1.7-1.6c0.8-0.4,1.5-0.5,2.2-0.5
		c0.4,0,0.8,0.1,1.2,0.2c0.3,0.1,0.5,0.2,0.6,0.5c0.1,0.2,0.1,0.5,0.1,0.7c-0.2,0.6-0.6,0.8-1.1,0.7c-0.5-0.1-0.9-0.2-1.2-0.2
		c-1.1,0-1.9,0.4-2.5,1.2C504.8,82.8,504.5,83.9,504.5,85.1z"/>
</g>
<g>
	<path d="M442.6,570.4c-1.3,0-2.5-0.2-3.6-0.7c-1.1-0.5-1.9-1-2.4-1.7c-0.2-0.2-0.2-0.4-0.2-0.6c0-0.3,0.1-0.5,0.3-0.7
		c0.2-0.2,0.4-0.3,0.7-0.3c0.2,0,0.5,0.1,0.7,0.3c0.5,0.5,1.1,1,2,1.4c0.8,0.4,1.8,0.6,2.8,0.6c1.2,0,2.2-0.3,2.9-0.9
		c0.7-0.6,1.1-1.4,1.1-2.3c0-0.7-0.2-1.3-0.7-1.7c-0.4-0.4-1-0.8-1.6-1c-0.6-0.2-1.3-0.4-1.9-0.6c-0.9-0.2-1.9-0.5-2.8-0.8
		s-1.6-0.8-2.2-1.4c-0.6-0.6-0.9-1.4-0.9-2.4c0-1.4,0.5-2.5,1.6-3.3c1.1-0.8,2.5-1.2,4.4-1.2c1.1,0,2.1,0.1,2.8,0.4
		c0.8,0.3,1.4,0.7,1.9,1.1c0.2,0.2,0.3,0.4,0.3,0.7c0,0.2-0.1,0.4-0.2,0.6c-0.2,0.2-0.4,0.3-0.6,0.3s-0.5-0.1-0.7-0.3
		c-0.3-0.2-0.8-0.5-1.4-0.8c-0.6-0.3-1.4-0.4-2.4-0.4c-1.2,0-2.2,0.2-2.9,0.7c-0.7,0.5-1.1,1.2-1.1,2.1c0,0.6,0.2,1.1,0.6,1.5
		c0.4,0.3,0.9,0.6,1.6,0.8c0.7,0.2,1.4,0.4,2.2,0.6c0.7,0.2,1.6,0.5,2.5,0.8c0.9,0.3,1.6,0.8,2.3,1.5c0.6,0.7,0.9,1.6,0.9,2.8
		c0,1.5-0.6,2.7-1.7,3.6C445.8,570,444.3,570.4,442.6,570.4z"/>
	<path d="M457.2,570.4c-1.2,0-2.3-0.3-3.2-0.9s-1.6-1.3-2.1-2.3c-0.5-1-0.7-2-0.7-3.2c0-1.2,0.3-2.2,0.8-3.2s1.3-1.7,2.2-2.2
		c0.9-0.5,1.9-0.8,3.1-0.8c1.7,0,3,0.4,4.1,1.1c0.2,0.2,0.4,0.4,0.4,0.7c0,0.6-0.3,0.8-0.8,0.8c-0.1,0-0.1,0-0.2,0s-0.2,0-0.2-0.1
		c-0.4-0.2-0.8-0.4-1.3-0.7c-0.5-0.2-1.1-0.3-1.7-0.3c-1.3,0-2.3,0.4-3.1,1.3c-0.8,0.9-1.2,2-1.2,3.3c0,1.3,0.4,2.3,1.1,3.1
		c0.8,0.8,1.7,1.3,2.9,1.4c0.7,0,1.5-0.1,2.2-0.4s1.3-0.7,1.8-1.1c0.2-0.1,0.3-0.2,0.5-0.2c0.2,0,0.4,0.1,0.6,0.3
		c0.2,0.2,0.2,0.4,0.2,0.6s-0.1,0.5-0.4,0.8c-0.6,0.6-1.3,1-2.1,1.3C459.1,570.2,458.2,570.4,457.2,570.4z"/>
	<path d="M470.7,570.4c-1.2,0-2.2-0.3-3.1-0.8s-1.6-1.3-2.2-2.3c-0.5-1-0.8-2-0.8-3.2c0-1.2,0.3-2.2,0.8-3.2
		c0.5-0.9,1.3-1.6,2.2-2.2s2-0.8,3.1-0.8c1.2,0,2.2,0.3,3.1,0.8s1.7,1.3,2.2,2.2s0.8,2,0.8,3.2c0,1.2-0.3,2.3-0.8,3.2
		c-0.5,1-1.3,1.7-2.2,2.3S471.9,570.4,470.7,570.4z M470.7,568.7c1.3,0,2.3-0.4,3.1-1.3c0.8-0.9,1.2-2,1.2-3.3
		c0-1.2-0.4-2.3-1.2-3.2c-0.8-0.9-1.8-1.3-3.1-1.3c-1.3,0-2.3,0.4-3.1,1.3c-0.8,0.9-1.1,1.9-1.1,3.2c0,1.3,0.4,2.4,1.1,3.3
		C468.4,568.2,469.5,568.7,470.7,568.7z"/>
	<path d="M486.1,570.4c-0.9,0-1.7-0.2-2.4-0.5c-0.7-0.3-1.3-0.8-1.8-1.4v6.4c0,0.3-0.1,0.5-0.2,0.7c-0.2,0.2-0.4,0.3-0.7,0.3
		c-0.3,0-0.5-0.1-0.7-0.3c-0.2-0.2-0.3-0.4-0.3-0.7V559c0-0.3,0.1-0.5,0.3-0.7s0.4-0.2,0.7-0.2c0.2,0,0.4,0.1,0.6,0.2
		c0.2,0.2,0.3,0.4,0.3,0.7v0.7c1.1-1.2,2.5-1.9,4.3-1.9c1.7,0,3.1,0.6,4.2,1.7c1.1,1.1,1.7,2.6,1.7,4.4c0,1.9-0.6,3.4-1.7,4.5
		C489.3,569.8,487.9,570.4,486.1,570.4z M486.1,568.7c1.2,0,2.2-0.4,2.9-1.3c0.7-0.9,1.1-2,1.1-3.3c0-1.2-0.4-2.3-1.1-3.2
		c-0.7-0.9-1.7-1.3-2.9-1.3c-1.3,0-2.3,0.4-3.1,1.1c-0.8,0.7-1.2,1.9-1.2,3.3c0,1.5,0.4,2.7,1.2,3.4S484.9,568.7,486.1,568.7z"/>
	<path d="M501.3,570.4c-1.9,0-3.5-0.6-4.7-1.7s-1.7-2.7-1.7-4.8c0-1.1,0.2-2.1,0.7-3c0.5-0.9,1.2-1.6,2.1-2.2c0.9-0.5,2-0.8,3.2-0.8
		c1.3,0,2.3,0.3,3.2,0.8s1.4,1.2,1.8,2c0.4,0.8,0.6,1.6,0.6,2.3c0,0.5-0.1,0.9-0.3,1.2c-0.2,0.3-0.5,0.5-0.9,0.5h-8
		c-0.2,0-0.3,0-0.4,0c-0.1,0-0.1,0.1-0.1,0.3c0,0.5,0.2,1,0.5,1.5c0.3,0.6,0.7,1,1.3,1.4s1.2,0.6,2,0.7c0.8,0.1,1.6,0,2.4-0.2
		c0.8-0.2,1.5-0.6,2.1-1c0.1-0.1,0.3-0.2,0.5-0.2c0.2,0,0.4,0.1,0.6,0.2s0.3,0.4,0.3,0.6c0,0.2-0.1,0.5-0.4,0.7
		c-0.7,0.5-1.4,0.9-2.2,1.2C503,570.3,502.2,570.4,501.3,570.4z M504,563.2c0.2,0,0.4-0.1,0.5-0.3c0.1-0.2,0.1-0.4,0.1-0.7
		c-0.1-0.7-0.5-1.4-1.1-1.9c-0.7-0.6-1.5-0.9-2.5-0.9c-0.7,0-1.4,0.2-2,0.5c-0.6,0.3-1.1,0.8-1.4,1.3c-0.4,0.5-0.5,1.1-0.5,1.7
		c0,0.1,0.1,0.2,0.4,0.2L504,563.2z"/>
</g>
<polygon class="st1" points="471.3,175.5 520.5,273.2 629.2,322.4 543.7,394.9 471.3,435.9 441,352.7 343.9,322.4 428.3,279.5 "/>
<polygon class="st2" points="471.3,175.5 520.5,273.2 629.2,322.4 543.7,394.9 471.3,435.9 441,352.7 343.9,322.4 428.3,279.5 "/>
<circle class="st3" cx="471.3" cy="175.5" r="5.2"/>
<circle class="st3" cx="428.3" cy="279.5" r="5.2"/>
<circle class="st3" cx="343.9" cy="322.4" r="5.2"/>
<circle class="st3" cx="440.9" cy="352.8" r="5.2"/>
<circle class="st3" cx="544.3" cy="395.5" r="5.2"/>
<circle class="st3" cx="629.2" cy="322.2" r="5.2"/>
<circle class="st3" cx="520.4" cy="273.3" r="5.2"/>
<circle class="st3" cx="471.3" cy="435.9" r="5.2"/>
</svg>
